# MagicaVoxel @ Ephtracy

# group
o 

# material
mtllib Ammo.mtl
usemtl palette

# normals
vn -1 0 0
vn 1 0 0
vn 0 0 1
vn 0 0 -1
vn 0 -1 0
vn 0 1 0

# texcoords
vt 0.974609 0.5
vt 0.982422 0.5

# verts
v -0.8 0 -0.1
v -0.8 0 -0.7
v -0.8 0.1 -0.1
v -0.8 0.1 -0.7
v -0.8 0.2 -0.1
v -0.8 0.2 -0.7
v -0.8 0.9 -0.1
v -0.8 0.9 -0.7
v -0.7 0 -5.96046e-08
v -0.7 0 -0.1
v -0.7 0 -0.7
v -0.7 0 -0.8
v -0.7 0.1 -5.96046e-08
v -0.7 0.1 -0.1
v -0.7 0.1 -0.7
v -0.7 0.1 -0.8
v -0.7 0.2 -5.96046e-08
v -0.7 0.2 -0.1
v -0.7 0.2 -0.7
v -0.7 0.2 -0.8
v -0.7 0.9 -5.96046e-08
v -0.7 0.9 -0.1
v -0.7 0.9 -0.7
v -0.7 0.9 -0.8
v -0.7 1 -0.1
v -0.7 1 -0.3
v -0.7 1 -0.5
v -0.7 1 -0.7
v -0.7 1.1 -0.3
v -0.7 1.1 -0.5
v -0.5 1 -0.1
v -0.5 1 -0.3
v -0.5 1 -0.5
v -0.5 1 -0.7
v -0.5 1.1 -0.1
v -0.5 1.1 -0.3
v -0.5 1.1 -0.5
v -0.5 1.1 -0.7
v -0.5 1.2 -0.3
v -0.5 1.2 -0.5
v -0.4 0 0.7
v -0.4 0 0.1
v -0.4 0.1 0.7
v -0.4 0.1 0.1
v -0.4 0.2 0.7
v -0.4 0.2 0.1
v -0.4 0.9 0.7
v -0.4 0.9 0.1
v -0.3 0 0.8
v -0.3 0 0.7
v -0.3 0 0.1
v -0.3 0 -5.96046e-08
v -0.3 0.1 0.8
v -0.3 0.1 0.7
v -0.3 0.1 0.1
v -0.3 0.1 -5.96046e-08
v -0.3 0.2 0.8
v -0.3 0.2 0.7
v -0.3 0.2 0.1
v -0.3 0.2 -5.96046e-08
v -0.3 0.9 0.8
v -0.3 0.9 0.7
v -0.3 0.9 0.1
v -0.3 0.9 -5.96046e-08
v -0.3 1 0.7
v -0.3 1 0.5
v -0.3 1 0.3
v -0.3 1 0.1
v -0.3 1.1 0.5
v -0.3 1.1 0.3
v -0.1 1 0.7
v -0.1 1 0.5
v -0.1 1 0.3
v -0.1 1 0.1
v -0.1 1.1 0.7
v -0.1 1.1 0.5
v -0.1 1.1 0.3
v -0.1 1.1 0.1
v -0.1 1.2 0.5
v -0.1 1.2 0.3
v 0.1 0 -5.96046e-08
v 0.1 0 -0.1
v 0.1 0 -0.7
v 0.1 0 -0.8
v 0.1 0.1 -5.96046e-08
v 0.1 0.1 -0.1
v 0.1 0.1 -0.7
v 0.1 0.1 -0.8
v 0.1 0.2 -5.96046e-08
v 0.1 0.2 -0.1
v 0.1 0.2 -0.7
v 0.1 0.2 -0.8
v 0.1 0.9 -5.96046e-08
v 0.1 0.9 -0.1
v 0.1 0.9 -0.7
v 0.1 0.9 -0.8
v 0.1 1 -0.1
v 0.1 1 -0.3
v 0.1 1 -0.5
v 0.1 1 -0.7
v 0.1 1.1 -0.3
v 0.1 1.1 -0.5
v 0.3 1 -0.1
v 0.3 1 -0.3
v 0.3 1 -0.5
v 0.3 1 -0.7
v 0.3 1.1 -0.1
v 0.3 1.1 -0.3
v 0.3 1.1 -0.5
v 0.3 1.1 -0.7
v 0.3 1.2 -0.3
v 0.3 1.2 -0.5
v -0.3 1 -0.1
v -0.3 1 -0.3
v -0.3 1 -0.5
v -0.3 1 -0.7
v -0.3 1.1 -0.1
v -0.3 1.1 -0.3
v -0.3 1.1 -0.5
v -0.3 1.1 -0.7
v -0.3 1.2 -0.3
v -0.3 1.2 -0.5
v -0.1 0 -5.96046e-08
v -0.1 0 -0.1
v -0.1 0 -0.7
v -0.1 0 -0.8
v -0.1 0.1 -5.96046e-08
v -0.1 0.1 -0.1
v -0.1 0.1 -0.7
v -0.1 0.1 -0.8
v -0.1 0.2 -5.96046e-08
v -0.1 0.2 -0.1
v -0.1 0.2 -0.7
v -0.1 0.2 -0.8
v -0.1 0.9 -5.96046e-08
v -0.1 0.9 -0.1
v -0.1 0.9 -0.7
v -0.1 0.9 -0.8
v -0.1 1 -0.1
v -0.1 1 -0.3
v -0.1 1 -0.5
v -0.1 1 -0.7
v -0.1 1.1 -0.3
v -0.1 1.1 -0.5
v 0.1 1 0.7
v 0.1 1 0.5
v 0.1 1 0.3
v 0.1 1 0.1
v 0.1 1.1 0.7
v 0.1 1.1 0.5
v 0.1 1.1 0.3
v 0.1 1.1 0.1
v 0.1 1.2 0.5
v 0.1 1.2 0.3
v 0.3 0 0.8
v 0.3 0 0.7
v 0.3 0 0.1
v 0.3 0 -5.96046e-08
v 0.3 0.1 0.8
v 0.3 0.1 0.7
v 0.3 0.1 0.1
v 0.3 0.1 -5.96046e-08
v 0.3 0.2 0.8
v 0.3 0.2 0.7
v 0.3 0.2 0.1
v 0.3 0.2 -5.96046e-08
v 0.3 0.9 0.8
v 0.3 0.9 0.7
v 0.3 0.9 0.1
v 0.3 0.9 -5.96046e-08
v 0.3 1 0.7
v 0.3 1 0.5
v 0.3 1 0.3
v 0.3 1 0.1
v 0.3 1.1 0.5
v 0.3 1.1 0.3
v 0.4 0 0.7
v 0.4 0 0.1
v 0.4 0.1 0.7
v 0.4 0.1 0.1
v 0.4 0.2 0.7
v 0.4 0.2 0.1
v 0.4 0.9 0.7
v 0.4 0.9 0.1
v 0.5 1 -0.1
v 0.5 1 -0.3
v 0.5 1 -0.5
v 0.5 1 -0.7
v 0.5 1.1 -0.1
v 0.5 1.1 -0.3
v 0.5 1.1 -0.5
v 0.5 1.1 -0.7
v 0.5 1.2 -0.3
v 0.5 1.2 -0.5
v 0.7 0 -5.96046e-08
v 0.7 0 -0.1
v 0.7 0 -0.7
v 0.7 0 -0.8
v 0.7 0.1 -5.96046e-08
v 0.7 0.1 -0.1
v 0.7 0.1 -0.7
v 0.7 0.1 -0.8
v 0.7 0.2 -5.96046e-08
v 0.7 0.2 -0.1
v 0.7 0.2 -0.7
v 0.7 0.2 -0.8
v 0.7 0.9 -5.96046e-08
v 0.7 0.9 -0.1
v 0.7 0.9 -0.7
v 0.7 0.9 -0.8
v 0.7 1 -0.1
v 0.7 1 -0.3
v 0.7 1 -0.5
v 0.7 1 -0.7
v 0.7 1.1 -0.3
v 0.7 1.1 -0.5
v 0.8 0 -0.1
v 0.8 0 -0.7
v 0.8 0.1 -0.1
v 0.8 0.1 -0.7
v 0.8 0.2 -0.1
v 0.8 0.2 -0.7
v 0.8 0.9 -0.1
v 0.8 0.9 -0.7
v -0.3 0 0.8
v -0.3 0.1 0.8
v -0.3 0.2 0.8
v -0.3 0.9 0.8
v 0.3 0 0.8
v 0.3 0.1 0.8
v 0.3 0.2 0.8
v 0.3 0.9 0.8
v -0.4 0 0.7
v -0.4 0.1 0.7
v -0.4 0.2 0.7
v -0.4 0.9 0.7
v -0.3 0 0.7
v -0.3 0.1 0.7
v -0.3 0.2 0.7
v -0.3 0.9 0.7
v -0.3 1 0.7
v -0.1 1 0.7
v -0.1 1.1 0.7
v 0.1 1 0.7
v 0.1 1.1 0.7
v 0.3 0 0.7
v 0.3 0.1 0.7
v 0.3 0.2 0.7
v 0.3 0.9 0.7
v 0.3 1 0.7
v 0.4 0 0.7
v 0.4 0.1 0.7
v 0.4 0.2 0.7
v 0.4 0.9 0.7
v -0.3 1 0.5
v -0.3 1.1 0.5
v -0.1 1 0.5
v -0.1 1.1 0.5
v -0.1 1.2 0.5
v 0.1 1 0.5
v 0.1 1.1 0.5
v 0.1 1.2 0.5
v 0.3 1 0.5
v 0.3 1.1 0.5
v -0.7 0 -5.96046e-08
v -0.7 0.1 -5.96046e-08
v -0.7 0.2 -5.96046e-08
v -0.7 0.9 -5.96046e-08
v -0.3 0 -5.96046e-08
v -0.3 0.1 -5.96046e-08
v -0.3 0.2 -5.96046e-08
v -0.3 0.9 -5.96046e-08
v 0.3 0 -5.96046e-08
v 0.3 0.1 -5.96046e-08
v 0.3 0.2 -5.96046e-08
v 0.3 0.9 -5.96046e-08
v 0.7 0 -5.96046e-08
v 0.7 0.1 -5.96046e-08
v 0.7 0.2 -5.96046e-08
v 0.7 0.9 -5.96046e-08
v -0.8 0 -0.1
v -0.8 0.1 -0.1
v -0.8 0.2 -0.1
v -0.8 0.9 -0.1
v -0.7 0 -0.1
v -0.7 0.1 -0.1
v -0.7 0.2 -0.1
v -0.7 0.9 -0.1
v -0.7 1 -0.1
v -0.5 1 -0.1
v -0.5 1.1 -0.1
v -0.3 1 -0.1
v -0.3 1.1 -0.1
v -0.1 0 -0.1
v -0.1 0.1 -0.1
v -0.1 0.2 -0.1
v -0.1 0.9 -0.1
v -0.1 1 -0.1
v 0.1 0 -0.1
v 0.1 0.1 -0.1
v 0.1 0.2 -0.1
v 0.1 0.9 -0.1
v 0.1 1 -0.1
v 0.3 1 -0.1
v 0.3 1.1 -0.1
v 0.5 1 -0.1
v 0.5 1.1 -0.1
v 0.7 0 -0.1
v 0.7 0.1 -0.1
v 0.7 0.2 -0.1
v 0.7 0.9 -0.1
v 0.7 1 -0.1
v 0.8 0 -0.1
v 0.8 0.1 -0.1
v 0.8 0.2 -0.1
v 0.8 0.9 -0.1
v -0.7 1 -0.3
v -0.7 1.1 -0.3
v -0.5 1 -0.3
v -0.5 1.1 -0.3
v -0.5 1.2 -0.3
v -0.3 1 -0.3
v -0.3 1.1 -0.3
v -0.3 1.2 -0.3
v -0.1 1 -0.3
v -0.1 1.1 -0.3
v 0.1 1 -0.3
v 0.1 1.1 -0.3
v 0.3 1 -0.3
v 0.3 1.1 -0.3
v 0.3 1.2 -0.3
v 0.5 1 -0.3
v 0.5 1.1 -0.3
v 0.5 1.2 -0.3
v 0.7 1 -0.3
v 0.7 1.1 -0.3
v -0.3 1 0.3
v -0.3 1.1 0.3
v -0.1 1 0.3
v -0.1 1.1 0.3
v -0.1 1.2 0.3
v 0.1 1 0.3
v 0.1 1.1 0.3
v 0.1 1.2 0.3
v 0.3 1 0.3
v 0.3 1.1 0.3
v -0.4 0 0.1
v -0.4 0.1 0.1
v -0.4 0.2 0.1
v -0.4 0.9 0.1
v -0.3 0 0.1
v -0.3 0.1 0.1
v -0.3 0.2 0.1
v -0.3 0.9 0.1
v -0.3 1 0.1
v -0.1 1 0.1
v -0.1 1.1 0.1
v 0.1 1 0.1
v 0.1 1.1 0.1
v 0.3 0 0.1
v 0.3 0.1 0.1
v 0.3 0.2 0.1
v 0.3 0.9 0.1
v 0.3 1 0.1
v 0.4 0 0.1
v 0.4 0.1 0.1
v 0.4 0.2 0.1
v 0.4 0.9 0.1
v -0.1 0 -5.96046e-08
v -0.1 0.1 -5.96046e-08
v -0.1 0.2 -5.96046e-08
v -0.1 0.9 -5.96046e-08
v 0.1 0 -5.96046e-08
v 0.1 0.1 -5.96046e-08
v 0.1 0.2 -5.96046e-08
v 0.1 0.9 -5.96046e-08
v -0.7 1 -0.5
v -0.7 1.1 -0.5
v -0.5 1 -0.5
v -0.5 1.1 -0.5
v -0.5 1.2 -0.5
v -0.3 1 -0.5
v -0.3 1.1 -0.5
v -0.3 1.2 -0.5
v -0.1 1 -0.5
v -0.1 1.1 -0.5
v 0.1 1 -0.5
v 0.1 1.1 -0.5
v 0.3 1 -0.5
v 0.3 1.1 -0.5
v 0.3 1.2 -0.5
v 0.5 1 -0.5
v 0.5 1.1 -0.5
v 0.5 1.2 -0.5
v 0.7 1 -0.5
v 0.7 1.1 -0.5
v -0.8 0 -0.7
v -0.8 0.1 -0.7
v -0.8 0.2 -0.7
v -0.8 0.9 -0.7
v -0.7 0 -0.7
v -0.7 0.1 -0.7
v -0.7 0.2 -0.7
v -0.7 0.9 -0.7
v -0.7 1 -0.7
v -0.5 1 -0.7
v -0.5 1.1 -0.7
v -0.3 1 -0.7
v -0.3 1.1 -0.7
v -0.1 0 -0.7
v -0.1 0.1 -0.7
v -0.1 0.2 -0.7
v -0.1 0.9 -0.7
v -0.1 1 -0.7
v 0.1 0 -0.7
v 0.1 0.1 -0.7
v 0.1 0.2 -0.7
v 0.1 0.9 -0.7
v 0.1 1 -0.7
v 0.3 1 -0.7
v 0.3 1.1 -0.7
v 0.5 1 -0.7
v 0.5 1.1 -0.7
v 0.7 0 -0.7
v 0.7 0.1 -0.7
v 0.7 0.2 -0.7
v 0.7 0.9 -0.7
v 0.7 1 -0.7
v 0.8 0 -0.7
v 0.8 0.1 -0.7
v 0.8 0.2 -0.7
v 0.8 0.9 -0.7
v -0.7 0 -0.8
v -0.7 0.1 -0.8
v -0.7 0.2 -0.8
v -0.7 0.9 -0.8
v -0.1 0 -0.8
v -0.1 0.1 -0.8
v -0.1 0.2 -0.8
v -0.1 0.9 -0.8
v 0.1 0 -0.8
v 0.1 0.1 -0.8
v 0.1 0.2 -0.8
v 0.1 0.9 -0.8
v 0.7 0 -0.8
v 0.7 0.1 -0.8
v 0.7 0.2 -0.8
v 0.7 0.9 -0.8
v -0.3 0 0.8
v 0.3 0 0.8
v -0.4 0 0.7
v -0.3 0 0.7
v 0.3 0 0.7
v 0.4 0 0.7
v -0.4 0 0.1
v -0.3 0 0.1
v 0.3 0 0.1
v 0.4 0 0.1
v -0.7 0 -5.96046e-08
v -0.3 0 -5.96046e-08
v -0.1 0 -5.96046e-08
v 0.1 0 -5.96046e-08
v 0.3 0 -5.96046e-08
v 0.7 0 -5.96046e-08
v -0.8 0 -0.1
v -0.7 0 -0.1
v -0.1 0 -0.1
v 0.1 0 -0.1
v 0.7 0 -0.1
v 0.8 0 -0.1
v -0.8 0 -0.7
v -0.7 0 -0.7
v -0.1 0 -0.7
v 0.1 0 -0.7
v 0.7 0 -0.7
v 0.8 0 -0.7
v -0.7 0 -0.8
v -0.1 0 -0.8
v 0.1 0 -0.8
v 0.7 0 -0.8
v -0.3 0.9 0.8
v 0.3 0.9 0.8
v -0.4 0.9 0.7
v -0.3 0.9 0.7
v 0.3 0.9 0.7
v 0.4 0.9 0.7
v -0.4 0.9 0.1
v -0.3 0.9 0.1
v 0.3 0.9 0.1
v 0.4 0.9 0.1
v -0.7 0.9 -5.96046e-08
v -0.3 0.9 -5.96046e-08
v -0.1 0.9 -5.96046e-08
v 0.1 0.9 -5.96046e-08
v 0.3 0.9 -5.96046e-08
v 0.7 0.9 -5.96046e-08
v -0.8 0.9 -0.1
v -0.7 0.9 -0.1
v -0.1 0.9 -0.1
v 0.1 0.9 -0.1
v 0.7 0.9 -0.1
v 0.8 0.9 -0.1
v -0.8 0.9 -0.7
v -0.7 0.9 -0.7
v -0.1 0.9 -0.7
v 0.1 0.9 -0.7
v 0.7 0.9 -0.7
v 0.8 0.9 -0.7
v -0.7 0.9 -0.8
v -0.1 0.9 -0.8
v 0.1 0.9 -0.8
v 0.7 0.9 -0.8
v -0.3 1 0.7
v -0.1 1 0.7
v 0.1 1 0.7
v 0.3 1 0.7
v -0.3 1 0.5
v -0.1 1 0.5
v 0.1 1 0.5
v 0.3 1 0.5
v -0.3 1 0.3
v -0.1 1 0.3
v 0.1 1 0.3
v 0.3 1 0.3
v -0.3 1 0.1
v -0.1 1 0.1
v 0.1 1 0.1
v 0.3 1 0.1
v -0.7 1 -0.1
v -0.5 1 -0.1
v -0.3 1 -0.1
v -0.1 1 -0.1
v 0.1 1 -0.1
v 0.3 1 -0.1
v 0.5 1 -0.1
v 0.7 1 -0.1
v -0.7 1 -0.3
v -0.5 1 -0.3
v -0.3 1 -0.3
v -0.1 1 -0.3
v 0.1 1 -0.3
v 0.3 1 -0.3
v 0.5 1 -0.3
v 0.7 1 -0.3
v -0.7 1 -0.5
v -0.5 1 -0.5
v -0.3 1 -0.5
v -0.1 1 -0.5
v 0.1 1 -0.5
v 0.3 1 -0.5
v 0.5 1 -0.5
v 0.7 1 -0.5
v -0.7 1 -0.7
v -0.5 1 -0.7
v -0.3 1 -0.7
v -0.1 1 -0.7
v 0.1 1 -0.7
v 0.3 1 -0.7
v 0.5 1 -0.7
v 0.7 1 -0.7
v -0.1 1.1 0.7
v 0.1 1.1 0.7
v -0.3 1.1 0.5
v -0.1 1.1 0.5
v 0.1 1.1 0.5
v 0.3 1.1 0.5
v -0.3 1.1 0.3
v -0.1 1.1 0.3
v 0.1 1.1 0.3
v 0.3 1.1 0.3
v -0.1 1.1 0.1
v 0.1 1.1 0.1
v -0.5 1.1 -0.1
v -0.3 1.1 -0.1
v 0.3 1.1 -0.1
v 0.5 1.1 -0.1
v -0.7 1.1 -0.3
v -0.5 1.1 -0.3
v -0.3 1.1 -0.3
v -0.1 1.1 -0.3
v 0.1 1.1 -0.3
v 0.3 1.1 -0.3
v 0.5 1.1 -0.3
v 0.7 1.1 -0.3
v -0.7 1.1 -0.5
v -0.5 1.1 -0.5
v -0.3 1.1 -0.5
v -0.1 1.1 -0.5
v 0.1 1.1 -0.5
v 0.3 1.1 -0.5
v 0.5 1.1 -0.5
v 0.7 1.1 -0.5
v -0.5 1.1 -0.7
v -0.3 1.1 -0.7
v 0.3 1.1 -0.7
v 0.5 1.1 -0.7
v -0.1 1.2 0.5
v 0.1 1.2 0.5
v -0.1 1.2 0.3
v 0.1 1.2 0.3
v -0.5 1.2 -0.3
v -0.3 1.2 -0.3
v 0.3 1.2 -0.3
v 0.5 1.2 -0.3
v -0.5 1.2 -0.5
v -0.3 1.2 -0.5
v 0.3 1.2 -0.5
v 0.5 1.2 -0.5

# faces
f 3/1/1 2/1/1 1/1/1
f 4/1/1 2/1/1 3/1/1
f 5/2/1 4/2/1 3/2/1
f 6/2/1 4/2/1 5/2/1
f 7/1/1 6/1/1 5/1/1
f 8/1/1 6/1/1 7/1/1
f 13/1/1 10/1/1 9/1/1
f 14/1/1 10/1/1 13/1/1
f 15/1/1 12/1/1 11/1/1
f 16/1/1 12/1/1 15/1/1
f 17/2/1 14/2/1 13/2/1
f 18/2/1 14/2/1 17/2/1
f 19/2/1 16/2/1 15/2/1
f 20/2/1 16/2/1 19/2/1
f 21/1/1 18/1/1 17/1/1
f 22/1/1 18/1/1 21/1/1
f 23/1/1 20/1/1 19/1/1
f 24/1/1 20/1/1 23/1/1
f 25/2/1 23/2/1 22/2/1
f 26/2/1 23/2/1 25/2/1
f 27/2/1 23/2/1 26/2/1
f 28/2/1 23/2/1 27/2/1
f 29/2/1 27/2/1 26/2/1
f 30/2/1 27/2/1 29/2/1
f 35/2/1 32/2/1 31/2/1
f 36/2/1 32/2/1 35/2/1
f 37/2/1 34/2/1 33/2/1
f 38/2/1 34/2/1 37/2/1
f 39/2/1 37/2/1 36/2/1
f 40/2/1 37/2/1 39/2/1
f 43/1/1 42/1/1 41/1/1
f 44/1/1 42/1/1 43/1/1
f 45/2/1 44/2/1 43/2/1
f 46/2/1 44/2/1 45/2/1
f 47/1/1 46/1/1 45/1/1
f 48/1/1 46/1/1 47/1/1
f 53/1/1 50/1/1 49/1/1
f 54/1/1 50/1/1 53/1/1
f 55/1/1 52/1/1 51/1/1
f 56/1/1 52/1/1 55/1/1
f 57/2/1 54/2/1 53/2/1
f 58/2/1 54/2/1 57/2/1
f 59/2/1 56/2/1 55/2/1
f 60/2/1 56/2/1 59/2/1
f 61/1/1 58/1/1 57/1/1
f 62/1/1 58/1/1 61/1/1
f 63/1/1 60/1/1 59/1/1
f 64/1/1 60/1/1 63/1/1
f 65/2/1 63/2/1 62/2/1
f 66/2/1 63/2/1 65/2/1
f 67/2/1 63/2/1 66/2/1
f 68/2/1 63/2/1 67/2/1
f 69/2/1 67/2/1 66/2/1
f 70/2/1 67/2/1 69/2/1
f 75/2/1 72/2/1 71/2/1
f 76/2/1 72/2/1 75/2/1
f 77/2/1 74/2/1 73/2/1
f 78/2/1 74/2/1 77/2/1
f 79/2/1 77/2/1 76/2/1
f 80/2/1 77/2/1 79/2/1
f 85/1/1 82/1/1 81/1/1
f 86/1/1 82/1/1 85/1/1
f 87/1/1 84/1/1 83/1/1
f 88/1/1 84/1/1 87/1/1
f 89/2/1 86/2/1 85/2/1
f 90/2/1 86/2/1 89/2/1
f 91/2/1 88/2/1 87/2/1
f 92/2/1 88/2/1 91/2/1
f 93/1/1 90/1/1 89/1/1
f 94/1/1 90/1/1 93/1/1
f 95/1/1 92/1/1 91/1/1
f 96/1/1 92/1/1 95/1/1
f 97/2/1 95/2/1 94/2/1
f 98/2/1 95/2/1 97/2/1
f 99/2/1 95/2/1 98/2/1
f 100/2/1 95/2/1 99/2/1
f 101/2/1 99/2/1 98/2/1
f 102/2/1 99/2/1 101/2/1
f 107/2/1 104/2/1 103/2/1
f 108/2/1 104/2/1 107/2/1
f 109/2/1 106/2/1 105/2/1
f 110/2/1 106/2/1 109/2/1
f 111/2/1 109/2/1 108/2/1
f 112/2/1 109/2/1 111/2/1
f 113/2/2 114/2/2 117/2/2
f 117/2/2 114/2/2 118/2/2
f 115/2/2 116/2/2 119/2/2
f 119/2/2 116/2/2 120/2/2
f 118/2/2 119/2/2 121/2/2
f 121/2/2 119/2/2 122/2/2
f 123/1/2 124/1/2 127/1/2
f 127/1/2 124/1/2 128/1/2
f 125/1/2 126/1/2 129/1/2
f 129/1/2 126/1/2 130/1/2
f 127/2/2 128/2/2 131/2/2
f 131/2/2 128/2/2 132/2/2
f 129/2/2 130/2/2 133/2/2
f 133/2/2 130/2/2 134/2/2
f 131/1/2 132/1/2 135/1/2
f 135/1/2 132/1/2 136/1/2
f 133/1/2 134/1/2 137/1/2
f 137/1/2 134/1/2 138/1/2
f 136/2/2 137/2/2 139/2/2
f 139/2/2 137/2/2 140/2/2
f 140/2/2 137/2/2 141/2/2
f 141/2/2 137/2/2 142/2/2
f 140/2/2 141/2/2 143/2/2
f 143/2/2 141/2/2 144/2/2
f 145/2/2 146/2/2 149/2/2
f 149/2/2 146/2/2 150/2/2
f 147/2/2 148/2/2 151/2/2
f 151/2/2 148/2/2 152/2/2
f 150/2/2 151/2/2 153/2/2
f 153/2/2 151/2/2 154/2/2
f 155/1/2 156/1/2 159/1/2
f 159/1/2 156/1/2 160/1/2
f 157/1/2 158/1/2 161/1/2
f 161/1/2 158/1/2 162/1/2
f 159/2/2 160/2/2 163/2/2
f 163/2/2 160/2/2 164/2/2
f 161/2/2 162/2/2 165/2/2
f 165/2/2 162/2/2 166/2/2
f 163/1/2 164/1/2 167/1/2
f 167/1/2 164/1/2 168/1/2
f 165/1/2 166/1/2 169/1/2
f 169/1/2 166/1/2 170/1/2
f 168/2/2 169/2/2 171/2/2
f 171/2/2 169/2/2 172/2/2
f 172/2/2 169/2/2 173/2/2
f 173/2/2 169/2/2 174/2/2
f 172/2/2 173/2/2 175/2/2
f 175/2/2 173/2/2 176/2/2
f 177/1/2 178/1/2 179/1/2
f 179/1/2 178/1/2 180/1/2
f 179/2/2 180/2/2 181/2/2
f 181/2/2 180/2/2 182/2/2
f 181/1/2 182/1/2 183/1/2
f 183/1/2 182/1/2 184/1/2
f 185/2/2 186/2/2 189/2/2
f 189/2/2 186/2/2 190/2/2
f 187/2/2 188/2/2 191/2/2
f 191/2/2 188/2/2 192/2/2
f 190/2/2 191/2/2 193/2/2
f 193/2/2 191/2/2 194/2/2
f 195/1/2 196/1/2 199/1/2
f 199/1/2 196/1/2 200/1/2
f 197/1/2 198/1/2 201/1/2
f 201/1/2 198/1/2 202/1/2
f 199/2/2 200/2/2 203/2/2
f 203/2/2 200/2/2 204/2/2
f 201/2/2 202/2/2 205/2/2
f 205/2/2 202/2/2 206/2/2
f 203/1/2 204/1/2 207/1/2
f 207/1/2 204/1/2 208/1/2
f 205/1/2 206/1/2 209/1/2
f 209/1/2 206/1/2 210/1/2
f 208/2/2 209/2/2 211/2/2
f 211/2/2 209/2/2 212/2/2
f 212/2/2 209/2/2 213/2/2
f 213/2/2 209/2/2 214/2/2
f 212/2/2 213/2/2 215/2/2
f 215/2/2 213/2/2 216/2/2
f 217/1/2 218/1/2 219/1/2
f 219/1/2 218/1/2 220/1/2
f 219/2/2 220/2/2 221/2/2
f 221/2/2 220/2/2 222/2/2
f 221/1/2 222/1/2 223/1/2
f 223/1/2 222/1/2 224/1/2
f 229/1/3 226/1/3 225/1/3
f 230/2/3 227/2/3 226/2/3
f 230/1/3 226/1/3 229/1/3
f 231/1/3 228/1/3 227/1/3
f 231/2/3 227/2/3 230/2/3
f 232/1/3 228/1/3 231/1/3
f 237/1/3 234/1/3 233/1/3
f 238/2/3 235/2/3 234/2/3
f 238/1/3 234/1/3 237/1/3
f 239/1/3 236/1/3 235/1/3
f 239/2/3 235/2/3 238/2/3
f 240/1/3 236/1/3 239/1/3
f 242/2/3 241/2/3 240/2/3
f 244/2/3 242/2/3 240/2/3
f 244/2/3 243/2/3 242/2/3
f 245/2/3 243/2/3 244/2/3
f 249/2/3 244/2/3 240/2/3
f 250/2/3 244/2/3 249/2/3
f 251/1/3 247/1/3 246/1/3
f 252/2/3 248/2/3 247/2/3
f 252/1/3 247/1/3 251/1/3
f 253/1/3 249/1/3 248/1/3
f 253/2/3 248/2/3 252/2/3
f 254/1/3 249/1/3 253/1/3
f 257/2/3 256/2/3 255/2/3
f 258/2/3 256/2/3 257/2/3
f 261/2/3 259/2/3 258/2/3
f 262/2/3 259/2/3 261/2/3
f 263/2/3 261/2/3 260/2/3
f 264/2/3 261/2/3 263/2/3
f 269/1/3 266/1/3 265/1/3
f 270/2/3 267/2/3 266/2/3
f 270/1/3 266/1/3 269/1/3
f 271/1/3 268/1/3 267/1/3
f 271/2/3 267/2/3 270/2/3
f 272/1/3 268/1/3 271/1/3
f 277/1/3 274/1/3 273/1/3
f 278/2/3 275/2/3 274/2/3
f 278/1/3 274/1/3 277/1/3
f 279/1/3 276/1/3 275/1/3
f 279/2/3 275/2/3 278/2/3
f 280/1/3 276/1/3 279/1/3
f 285/1/3 282/1/3 281/1/3
f 286/2/3 283/2/3 282/2/3
f 286/1/3 282/1/3 285/1/3
f 287/1/3 284/1/3 283/1/3
f 287/2/3 283/2/3 286/2/3
f 288/1/3 284/1/3 287/1/3
f 290/2/3 289/2/3 288/2/3
f 292/2/3 290/2/3 288/2/3
f 292/2/3 291/2/3 290/2/3
f 293/2/3 291/2/3 292/2/3
f 297/2/3 292/2/3 288/2/3
f 298/2/3 292/2/3 297/2/3
f 299/1/3 295/1/3 294/1/3
f 300/2/3 296/2/3 295/2/3
f 300/1/3 295/1/3 299/1/3
f 301/1/3 297/1/3 296/1/3
f 301/2/3 296/2/3 300/2/3
f 302/1/3 297/1/3 301/1/3
f 304/2/3 303/2/3 302/2/3
f 306/2/3 304/2/3 302/2/3
f 306/2/3 305/2/3 304/2/3
f 307/2/3 305/2/3 306/2/3
f 311/2/3 306/2/3 302/2/3
f 312/2/3 306/2/3 311/2/3
f 313/1/3 309/1/3 308/1/3
f 314/2/3 310/2/3 309/2/3
f 314/1/3 309/1/3 313/1/3
f 315/1/3 311/1/3 310/1/3
f 315/2/3 310/2/3 314/2/3
f 316/1/3 311/1/3 315/1/3
f 319/2/3 318/2/3 317/2/3
f 320/2/3 318/2/3 319/2/3
f 323/2/3 321/2/3 320/2/3
f 324/2/3 321/2/3 323/2/3
f 325/2/3 323/2/3 322/2/3
f 326/2/3 323/2/3 325/2/3
f 329/2/3 328/2/3 327/2/3
f 330/2/3 328/2/3 329/2/3
f 333/2/3 331/2/3 330/2/3
f 334/2/3 331/2/3 333/2/3
f 335/2/3 333/2/3 332/2/3
f 336/2/3 333/2/3 335/2/3
f 337/2/4 338/2/4 339/2/4
f 339/2/4 338/2/4 340/2/4
f 340/2/4 341/2/4 343/2/4
f 343/2/4 341/2/4 344/2/4
f 342/2/4 343/2/4 345/2/4
f 345/2/4 343/2/4 346/2/4
f 347/1/4 348/1/4 351/1/4
f 348/2/4 349/2/4 352/2/4
f 351/1/4 348/1/4 352/1/4
f 349/1/4 350/1/4 353/1/4
f 352/2/4 349/2/4 353/2/4
f 353/1/4 350/1/4 354/1/4
f 354/2/4 355/2/4 356/2/4
f 354/2/4 356/2/4 358/2/4
f 356/2/4 357/2/4 358/2/4
f 358/2/4 357/2/4 359/2/4
f 354/2/4 358/2/4 363/2/4
f 363/2/4 358/2/4 364/2/4
f 360/1/4 361/1/4 365/1/4
f 361/2/4 362/2/4 366/2/4
f 365/1/4 361/1/4 366/1/4
f 362/1/4 363/1/4 367/1/4
f 366/2/4 362/2/4 367/2/4
f 367/1/4 363/1/4 368/1/4
f 369/1/4 370/1/4 373/1/4
f 370/2/4 371/2/4 374/2/4
f 373/1/4 370/1/4 374/1/4
f 371/1/4 372/1/4 375/1/4
f 374/2/4 371/2/4 375/2/4
f 375/1/4 372/1/4 376/1/4
f 377/2/4 378/2/4 379/2/4
f 379/2/4 378/2/4 380/2/4
f 380/2/4 381/2/4 383/2/4
f 383/2/4 381/2/4 384/2/4
f 382/2/4 383/2/4 385/2/4
f 385/2/4 383/2/4 386/2/4
f 387/2/4 388/2/4 389/2/4
f 389/2/4 388/2/4 390/2/4
f 390/2/4 391/2/4 393/2/4
f 393/2/4 391/2/4 394/2/4
f 392/2/4 393/2/4 395/2/4
f 395/2/4 393/2/4 396/2/4
f 397/1/4 398/1/4 401/1/4
f 398/2/4 399/2/4 402/2/4
f 401/1/4 398/1/4 402/1/4
f 399/1/4 400/1/4 403/1/4
f 402/2/4 399/2/4 403/2/4
f 403/1/4 400/1/4 404/1/4
f 404/2/4 405/2/4 406/2/4
f 404/2/4 406/2/4 408/2/4
f 406/2/4 407/2/4 408/2/4
f 408/2/4 407/2/4 409/2/4
f 404/2/4 408/2/4 413/2/4
f 413/2/4 408/2/4 414/2/4
f 410/1/4 411/1/4 415/1/4
f 411/2/4 412/2/4 416/2/4
f 415/1/4 411/1/4 416/1/4
f 412/1/4 413/1/4 417/1/4
f 416/2/4 412/2/4 417/2/4
f 417/1/4 413/1/4 418/1/4
f 418/2/4 419/2/4 420/2/4
f 418/2/4 420/2/4 422/2/4
f 420/2/4 421/2/4 422/2/4
f 422/2/4 421/2/4 423/2/4
f 418/2/4 422/2/4 427/2/4
f 427/2/4 422/2/4 428/2/4
f 424/1/4 425/1/4 429/1/4
f 425/2/4 426/2/4 430/2/4
f 429/1/4 425/1/4 430/1/4
f 426/1/4 427/1/4 431/1/4
f 430/2/4 426/2/4 431/2/4
f 431/1/4 427/1/4 432/1/4
f 433/1/4 434/1/4 437/1/4
f 434/2/4 435/2/4 438/2/4
f 437/1/4 434/1/4 438/1/4
f 435/1/4 436/1/4 439/1/4
f 438/2/4 435/2/4 439/2/4
f 439/1/4 436/1/4 440/1/4
f 441/1/4 442/1/4 445/1/4
f 442/2/4 443/2/4 446/2/4
f 445/1/4 442/1/4 446/1/4
f 443/1/4 444/1/4 447/1/4
f 446/2/4 443/2/4 447/2/4
f 447/1/4 444/1/4 448/1/4
f 452/1/5 450/1/5 449/1/5
f 453/1/5 450/1/5 452/1/5
f 455/1/5 452/1/5 451/1/5
f 455/1/5 454/1/5 453/1/5
f 455/1/5 453/1/5 452/1/5
f 456/1/5 454/1/5 455/1/5
f 457/1/5 454/1/5 456/1/5
f 458/1/5 454/1/5 457/1/5
f 460/1/5 457/1/5 456/1/5
f 461/1/5 457/1/5 460/1/5
f 462/1/5 457/1/5 461/1/5
f 463/1/5 457/1/5 462/1/5
f 466/1/5 460/1/5 459/1/5
f 466/1/5 461/1/5 460/1/5
f 467/1/5 461/1/5 466/1/5
f 468/1/5 463/1/5 462/1/5
f 468/1/5 464/1/5 463/1/5
f 469/1/5 464/1/5 468/1/5
f 471/1/5 467/1/5 466/1/5
f 471/1/5 470/1/5 469/1/5
f 471/1/5 469/1/5 468/1/5
f 471/1/5 468/1/5 467/1/5
f 471/1/5 466/1/5 465/1/5
f 472/1/5 470/1/5 471/1/5
f 473/1/5 470/1/5 472/1/5
f 474/1/5 470/1/5 473/1/5
f 475/1/5 470/1/5 474/1/5
f 476/1/5 470/1/5 475/1/5
f 477/1/5 473/1/5 472/1/5
f 478/1/5 473/1/5 477/1/5
f 479/1/5 475/1/5 474/1/5
f 480/1/5 475/1/5 479/1/5
f 481/1/6 482/1/6 484/1/6
f 484/1/6 482/1/6 485/1/6
f 483/1/6 484/1/6 487/1/6
f 487/1/6 484/1/6 488/1/6
f 485/1/6 486/1/6 489/1/6
f 489/1/6 486/1/6 490/1/6
f 488/1/6 489/1/6 492/1/6
f 492/1/6 489/1/6 493/1/6
f 493/1/6 489/1/6 494/1/6
f 494/1/6 489/1/6 495/1/6
f 491/1/6 492/1/6 498/1/6
f 492/1/6 493/1/6 498/1/6
f 498/1/6 493/1/6 499/1/6
f 494/1/6 495/1/6 500/1/6
f 495/1/6 496/1/6 500/1/6
f 500/1/6 496/1/6 501/1/6
f 497/1/6 498/1/6 503/1/6
f 503/1/6 498/1/6 504/1/6
f 499/1/6 500/1/6 505/1/6
f 505/1/6 500/1/6 506/1/6
f 501/1/6 502/1/6 507/1/6
f 507/1/6 502/1/6 508/1/6
f 504/1/6 505/1/6 509/1/6
f 509/1/6 505/1/6 510/1/6
f 506/1/6 507/1/6 511/1/6
f 511/1/6 507/1/6 512/1/6
f 513/2/6 514/2/6 517/2/6
f 517/2/6 514/2/6 518/2/6
f 515/2/6 516/2/6 519/2/6
f 519/2/6 516/2/6 520/2/6
f 521/2/6 522/2/6 525/2/6
f 525/2/6 522/2/6 526/2/6
f 523/2/6 524/2/6 527/2/6
f 527/2/6 524/2/6 528/2/6
f 529/2/6 530/2/6 537/2/6
f 537/2/6 530/2/6 538/2/6
f 531/2/6 532/2/6 539/2/6
f 539/2/6 532/2/6 540/2/6
f 533/2/6 534/2/6 541/2/6
f 541/2/6 534/2/6 542/2/6
f 535/2/6 536/2/6 543/2/6
f 543/2/6 536/2/6 544/2/6
f 545/2/6 546/2/6 553/2/6
f 553/2/6 546/2/6 554/2/6
f 547/2/6 548/2/6 555/2/6
f 555/2/6 548/2/6 556/2/6
f 549/2/6 550/2/6 557/2/6
f 557/2/6 550/2/6 558/2/6
f 551/2/6 552/2/6 559/2/6
f 559/2/6 552/2/6 560/2/6
f 561/2/6 562/2/6 564/2/6
f 564/2/6 562/2/6 565/2/6
f 563/2/6 564/2/6 567/2/6
f 567/2/6 564/2/6 568/2/6
f 565/2/6 566/2/6 569/2/6
f 569/2/6 566/2/6 570/2/6
f 568/2/6 569/2/6 571/2/6
f 571/2/6 569/2/6 572/2/6
f 573/2/6 574/2/6 578/2/6
f 578/2/6 574/2/6 579/2/6
f 575/2/6 576/2/6 582/2/6
f 582/2/6 576/2/6 583/2/6
f 577/2/6 578/2/6 585/2/6
f 585/2/6 578/2/6 586/2/6
f 579/2/6 580/2/6 587/2/6
f 587/2/6 580/2/6 588/2/6
f 581/2/6 582/2/6 589/2/6
f 589/2/6 582/2/6 590/2/6
f 583/2/6 584/2/6 591/2/6
f 591/2/6 584/2/6 592/2/6
f 586/2/6 587/2/6 593/2/6
f 593/2/6 587/2/6 594/2/6
f 590/2/6 591/2/6 595/2/6
f 595/2/6 591/2/6 596/2/6
f 597/2/6 598/2/6 599/2/6
f 599/2/6 598/2/6 600/2/6
f 601/2/6 602/2/6 605/2/6
f 605/2/6 602/2/6 606/2/6
f 603/2/6 604/2/6 607/2/6
f 607/2/6 604/2/6 608/2/6
