# MagicaVoxel @ Ephtracy

# group
o 

# material
mtllib gun2.mtl
usemtl palette

# normals
vn -1 0 0
vn 1 0 0
vn 0 0 1
vn 0 0 -1
vn 0 -1 0
vn 0 1 0

# texcoords
vt 0.958984 0.5
vt 0.962891 0.5

# verts
v -1.1 0.5 0.3
v -1.1 0.5 -0.3
v -1.1 0.7 0.3
v -1.1 0.7 -0.3
v -1 0.7 0.3
v -1 0.7 -0.3
v -1 0.9 0.3
v -1 0.9 -0.3
v -0.9 0.9 0.3
v -0.9 0.9 -0.3
v -0.9 1.1 0.3
v -0.9 1.1 -0.3
v -0.9 1.5 0.2
v -0.9 1.5 -0.2
v -0.9 1.6 0.3
v -0.9 1.6 0.2
v -0.9 1.6 -0.2
v -0.9 1.6 -0.3
v -0.9 1.7 0.3
v -0.9 1.7 0.2
v -0.9 1.7 -0.2
v -0.9 1.7 -0.3
v -0.9 2.2 0.3
v -0.9 2.2 -0.3
v -0.8 1.1 0.3
v -0.8 1.1 -0.3
v -0.8 1.3 0.3
v -0.8 1.3 -0.3
v -0.8 2.2 0.2
v -0.8 2.2 -0.2
v -0.8 2.3 0.2
v -0.8 2.3 -0.2
v -0.7 1.3 0.3
v -0.7 1.3 -0.3
v -0.7 1.5 0.2
v -0.7 1.5 -0.2
v -0.7 1.6 0.3
v -0.7 1.6 0.2
v -0.7 1.6 -0.2
v -0.7 1.6 -0.3
v -0.6 1.8 0.3
v -0.6 1.8 0.1
v -0.6 1.8 -0.1
v -0.6 1.8 -0.3
v -0.6 2.1 0.3
v -0.6 2.1 0.1
v -0.6 2.1 -0.1
v -0.6 2.1 -0.3
v -0.4 1.8 0.3
v -0.4 1.8 0.1
v -0.4 1.8 -0.1
v -0.4 1.8 -0.3
v -0.4 2.1 0.3
v -0.4 2.1 0.1
v -0.4 2.1 -0.1
v -0.4 2.1 -0.3
v -0.2 1 0.1
v -0.2 1 -0.1
v -0.2 1.1 0.1
v -0.2 1.1 -0.1
v -0.2 1.8 0.3
v -0.2 1.8 0.1
v -0.2 1.8 -0.1
v -0.2 1.8 -0.3
v -0.2 2.1 0.3
v -0.2 2.1 0.1
v -0.2 2.1 -0.1
v -0.2 2.1 -0.3
v -0.1 0.9 0.1
v -0.1 0.9 -0.1
v -0.1 1 0.1
v -0.1 1 -0.1
v 0 1.2 0.1
v 0 1.2 -0.1
v 0 1.3 0.1
v 0 1.3 -0.1
v 0.1 1.1 0.1
v 0.1 1.1 -0.1
v 0.1 1.2 0.1
v 0.1 1.2 -0.1
v 0.3 1 0.1
v 0.3 1 -0.1
v 0.3 1.1 0.1
v 0.3 1.1 -0.1
v 0.4 1.1 0.1
v 0.4 1.1 -0.1
v 0.4 1.4 0.1
v 0.4 1.4 -0.1
v 0.5 2 0.3
v 0.5 2 -0.2
v 0.5 2.1 0
v 0.5 2.1 -0.2
v 0.5 2.2 0.3
v 0.5 2.2 0
v 0.9 1.9 0.1
v 0.9 1.9 -0.1
v 0.9 2.1 0.1
v 0.9 2.1 -0.1
v 1 1.8 0.3
v 1 1.8 0.2
v 1 1.8 -0.2
v 1 1.8 -0.3
v 1 2.1 0.3
v 1 2.1 0.2
v 1 2.1 -0.2
v 1 2.1 -0.3
v 1.1 2.2 0.1
v 1.1 2.2 -0.1
v 1.1 2.3 0.1
v 1.1 2.3 -0.1
v 1.2 1.8 0.3
v 1.2 1.8 0.2
v 1.2 1.8 -0.2
v 1.2 1.8 -0.3
v 1.2 2.1 0.3
v 1.2 2.1 0.2
v 1.2 2.1 -0.2
v 1.2 2.1 -0.3
v -0.7 1.8 0.3
v -0.7 1.8 0.1
v -0.7 1.8 -0.1
v -0.7 1.8 -0.3
v -0.7 2.1 0.3
v -0.7 2.1 0.1
v -0.7 2.1 -0.1
v -0.7 2.1 -0.3
v -0.7 2.2 0.2
v -0.7 2.2 -0.2
v -0.7 2.3 0.2
v -0.7 2.3 -0.2
v -0.5 0.5 0.3
v -0.5 0.5 -0.3
v -0.5 0.7 0.3
v -0.5 0.7 -0.3
v -0.5 1.8 0.3
v -0.5 1.8 0.1
v -0.5 1.8 -0.1
v -0.5 1.8 -0.3
v -0.5 2.1 0.3
v -0.5 2.1 0.1
v -0.5 2.1 -0.1
v -0.5 2.1 -0.3
v -0.4 0.7 0.3
v -0.4 0.7 -0.3
v -0.4 0.9 0.3
v -0.4 0.9 -0.3
v -0.3 0.9 0.3
v -0.3 0.9 -0.3
v -0.3 1.1 0.3
v -0.3 1.1 -0.3
v -0.3 1.8 0.3
v -0.3 1.8 0.1
v -0.3 1.8 -0.1
v -0.3 1.8 -0.3
v -0.3 2.1 0.3
v -0.3 2.1 0.1
v -0.3 2.1 -0.1
v -0.3 2.1 -0.3
v -0.2 1.1 0.3
v -0.2 1.1 0.1
v -0.2 1.1 -0.1
v -0.2 1.1 -0.3
v -0.2 1.2 0.1
v -0.2 1.2 -0.1
v -0.2 1.3 0.1
v -0.2 1.3 -0.1
v -0.2 1.4 0.3
v -0.2 1.4 0.1
v -0.2 1.4 -0.1
v -0.2 1.4 -0.3
v -0.1 1 0.1
v -0.1 1 -0.1
v -0.1 1.2 0.1
v -0.1 1.2 -0.1
v -0.1 2 0.3
v -0.1 2 -0.2
v -0.1 2.1 0.3
v -0.1 2.1 -0.2
v 0 1.3 0.1
v 0 1.3 -0.1
v 0 1.4 0.3
v 0 1.4 0.2
v 0 1.4 0.1
v 0 1.4 -0.1
v 0 1.4 -0.2
v 0 1.4 -0.3
v 0 1.5 0.3
v 0 1.5 0.2
v 0 1.5 -0.2
v 0 1.5 -0.3
v 0.1 1.2 0.1
v 0.1 1.2 -0.1
v 0.1 1.3 0.1
v 0.1 1.3 -0.1
v 0.1 2.1 0.3
v 0.1 2.1 0
v 0.1 2.2 0.3
v 0.1 2.2 0
v 0.2 1.1 0.1
v 0.2 1.1 -0.1
v 0.2 1.2 0.1
v 0.2 1.2 -0.1
v 0.3 0.9 0.1
v 0.3 0.9 -0.1
v 0.3 1 0.1
v 0.3 1 -0.1
v 0.5 1 0.1
v 0.5 1 -0.1
v 0.5 1.4 0.2
v 0.5 1.4 0.1
v 0.5 1.4 -0.1
v 0.5 1.4 -0.2
v 0.5 1.5 0.3
v 0.5 1.5 0.2
v 0.5 1.5 0.1
v 0.5 1.5 -0.1
v 0.5 1.5 -0.2
v 0.5 1.5 -0.3
v 0.5 1.6 0.2
v 0.5 1.6 0.1
v 0.5 1.6 -0.1
v 0.5 1.6 -0.2
v 0.5 1.7 0.3
v 0.5 1.7 0.2
v 0.5 1.7 -0.2
v 0.5 1.7 -0.3
v 0.8 1.9 0.1
v 0.8 1.9 -0.1
v 0.8 2.1 0.1
v 0.8 2.1 -0.1
v 0.9 1.8 0.3
v 0.9 1.8 0.2
v 0.9 1.8 -0.2
v 0.9 1.8 -0.3
v 0.9 2.1 0.3
v 0.9 2.1 0.2
v 0.9 2.1 -0.2
v 0.9 2.1 -0.3
v 1.1 1.8 0.3
v 1.1 1.8 0.2
v 1.1 1.8 -0.2
v 1.1 1.8 -0.3
v 1.1 2.1 0.3
v 1.1 2.1 0.2
v 1.1 2.1 -0.2
v 1.1 2.1 -0.3
v 1.2 1.8 0.1
v 1.2 1.8 -0.1
v 1.2 2 0.1
v 1.2 2 -0.1
v 1.2 2.2 0.1
v 1.2 2.2 -0.1
v 1.2 2.3 0.1
v 1.2 2.3 -0.1
v 1.4 1.5 0.1
v 1.4 1.5 -0.1
v 1.4 1.6 0.2
v 1.4 1.6 0.1
v 1.4 1.6 -0.1
v 1.4 1.6 -0.2
v 1.4 1.7 0.3
v 1.4 1.7 0.2
v 1.4 1.7 -0.2
v 1.4 1.7 -0.3
v 1.4 1.8 0.1
v 1.4 1.8 -0.1
v 1.4 2 0.1
v 1.4 2 -0.1
v 1.4 2.2 0.3
v 1.4 2.2 -0.3
v -1.1 0.5 0.3
v -1.1 0.7 0.3
v -1 0.7 0.3
v -1 0.9 0.3
v -0.9 0.9 0.3
v -0.9 1.1 0.3
v -0.9 1.6 0.3
v -0.9 1.7 0.3
v -0.9 2.2 0.3
v -0.8 1.1 0.3
v -0.8 1.3 0.3
v -0.7 1.3 0.3
v -0.7 1.6 0.3
v -0.7 1.8 0.3
v -0.7 2.1 0.3
v -0.6 1.8 0.3
v -0.6 2.1 0.3
v -0.5 0.5 0.3
v -0.5 0.7 0.3
v -0.5 1.8 0.3
v -0.5 2.1 0.3
v -0.4 0.7 0.3
v -0.4 0.9 0.3
v -0.4 1.8 0.3
v -0.4 2.1 0.3
v -0.3 0.9 0.3
v -0.3 1.1 0.3
v -0.3 1.8 0.3
v -0.3 2.1 0.3
v -0.2 1.1 0.3
v -0.2 1.4 0.3
v -0.2 1.8 0.3
v -0.2 2.1 0.3
v -0.1 2 0.3
v -0.1 2.1 0.3
v 0 1.4 0.3
v 0 1.5 0.3
v 0.1 2.1 0.3
v 0.1 2.2 0.3
v 0.5 1.5 0.3
v 0.5 1.7 0.3
v 0.5 2 0.3
v 0.5 2.2 0.3
v 0.9 1.8 0.3
v 0.9 2.1 0.3
v 1 1.8 0.3
v 1 2.1 0.3
v 1.1 1.8 0.3
v 1.1 2.1 0.3
v 1.2 1.8 0.3
v 1.2 2.1 0.3
v 1.4 1.7 0.3
v 1.4 2.2 0.3
v -0.9 1.5 0.2
v -0.9 1.6 0.2
v -0.8 2.2 0.2
v -0.8 2.3 0.2
v -0.7 1.5 0.2
v -0.7 1.6 0.2
v -0.7 2.2 0.2
v -0.7 2.3 0.2
v 0 1.4 0.2
v 0 1.5 0.2
v 0.5 1.4 0.2
v 0.5 1.5 0.2
v 0.5 1.6 0.2
v 0.5 1.7 0.2
v 0.9 1.8 0.2
v 0.9 2.1 0.2
v 1 1.8 0.2
v 1 2.1 0.2
v 1.1 1.8 0.2
v 1.1 2.1 0.2
v 1.2 1.8 0.2
v 1.2 2.1 0.2
v 1.4 1.6 0.2
v 1.4 1.7 0.2
v -0.7 1.8 0.1
v -0.7 2.1 0.1
v -0.6 1.8 0.1
v -0.6 2.1 0.1
v -0.5 1.8 0.1
v -0.5 2.1 0.1
v -0.4 1.8 0.1
v -0.4 2.1 0.1
v -0.3 1.8 0.1
v -0.3 2.1 0.1
v -0.2 1 0.1
v -0.2 1.1 0.1
v -0.2 1.2 0.1
v -0.2 1.3 0.1
v -0.2 1.4 0.1
v -0.2 1.8 0.1
v -0.2 2.1 0.1
v -0.1 0.9 0.1
v -0.1 1 0.1
v -0.1 1.2 0.1
v 0 1.2 0.1
v 0 1.3 0.1
v 0 1.4 0.1
v 0.1 1.1 0.1
v 0.1 1.2 0.1
v 0.1 1.3 0.1
v 0.2 1.1 0.1
v 0.2 1.2 0.1
v 0.3 0.9 0.1
v 0.3 1 0.1
v 0.3 1.1 0.1
v 0.4 1.1 0.1
v 0.4 1.4 0.1
v 0.5 1 0.1
v 0.5 1.4 0.1
v 0.5 1.5 0.1
v 0.5 1.6 0.1
v 1.1 2.2 0.1
v 1.1 2.3 0.1
v 1.2 2.2 0.1
v 1.2 2.3 0.1
v 1.4 1.5 0.1
v 1.4 1.6 0.1
v 0.1 2.1 0
v 0.1 2.2 0
v 0.5 2.1 0
v 0.5 2.2 0
v 0.8 1.9 -0.1
v 0.8 2.1 -0.1
v 0.9 1.9 -0.1
v 0.9 2.1 -0.1
v 1.2 1.8 -0.1
v 1.2 2 -0.1
v 1.4 1.8 -0.1
v 1.4 2 -0.1
v -0.1 2 -0.2
v -0.1 2.1 -0.2
v 0.5 2 -0.2
v 0.5 2.1 -0.2
v 0.8 1.9 0.1
v 0.8 2.1 0.1
v 0.9 1.9 0.1
v 0.9 2.1 0.1
v 1.2 1.8 0.1
v 1.2 2 0.1
v 1.4 1.8 0.1
v 1.4 2 0.1
v -0.7 1.8 -0.1
v -0.7 2.1 -0.1
v -0.6 1.8 -0.1
v -0.6 2.1 -0.1
v -0.5 1.8 -0.1
v -0.5 2.1 -0.1
v -0.4 1.8 -0.1
v -0.4 2.1 -0.1
v -0.3 1.8 -0.1
v -0.3 2.1 -0.1
v -0.2 1 -0.1
v -0.2 1.1 -0.1
v -0.2 1.2 -0.1
v -0.2 1.3 -0.1
v -0.2 1.4 -0.1
v -0.2 1.8 -0.1
v -0.2 2.1 -0.1
v -0.1 0.9 -0.1
v -0.1 1 -0.1
v -0.1 1.2 -0.1
v 0 1.2 -0.1
v 0 1.3 -0.1
v 0 1.4 -0.1
v 0.1 1.1 -0.1
v 0.1 1.2 -0.1
v 0.1 1.3 -0.1
v 0.2 1.1 -0.1
v 0.2 1.2 -0.1
v 0.3 0.9 -0.1
v 0.3 1 -0.1
v 0.3 1.1 -0.1
v 0.4 1.1 -0.1
v 0.4 1.4 -0.1
v 0.5 1 -0.1
v 0.5 1.4 -0.1
v 0.5 1.5 -0.1
v 0.5 1.6 -0.1
v 1.1 2.2 -0.1
v 1.1 2.3 -0.1
v 1.2 2.2 -0.1
v 1.2 2.3 -0.1
v 1.4 1.5 -0.1
v 1.4 1.6 -0.1
v -0.9 1.5 -0.2
v -0.9 1.6 -0.2
v -0.8 2.2 -0.2
v -0.8 2.3 -0.2
v -0.7 1.5 -0.2
v -0.7 1.6 -0.2
v -0.7 2.2 -0.2
v -0.7 2.3 -0.2
v 0 1.4 -0.2
v 0 1.5 -0.2
v 0.5 1.4 -0.2
v 0.5 1.5 -0.2
v 0.5 1.6 -0.2
v 0.5 1.7 -0.2
v 0.9 1.8 -0.2
v 0.9 2.1 -0.2
v 1 1.8 -0.2
v 1 2.1 -0.2
v 1.1 1.8 -0.2
v 1.1 2.1 -0.2
v 1.2 1.8 -0.2
v 1.2 2.1 -0.2
v 1.4 1.6 -0.2
v 1.4 1.7 -0.2
v -1.1 0.5 -0.3
v -1.1 0.7 -0.3
v -1 0.7 -0.3
v -1 0.9 -0.3
v -0.9 0.9 -0.3
v -0.9 1.1 -0.3
v -0.9 1.6 -0.3
v -0.9 1.7 -0.3
v -0.9 2.2 -0.3
v -0.8 1.1 -0.3
v -0.8 1.3 -0.3
v -0.7 1.3 -0.3
v -0.7 1.6 -0.3
v -0.7 1.8 -0.3
v -0.7 2.1 -0.3
v -0.6 1.8 -0.3
v -0.6 2.1 -0.3
v -0.5 0.5 -0.3
v -0.5 0.7 -0.3
v -0.5 1.8 -0.3
v -0.5 2.1 -0.3
v -0.4 0.7 -0.3
v -0.4 0.9 -0.3
v -0.4 1.8 -0.3
v -0.4 2.1 -0.3
v -0.3 0.9 -0.3
v -0.3 1.1 -0.3
v -0.3 1.8 -0.3
v -0.3 2.1 -0.3
v -0.2 1.1 -0.3
v -0.2 1.4 -0.3
v -0.2 1.8 -0.3
v -0.2 2.1 -0.3
v 0 1.4 -0.3
v 0 1.5 -0.3
v 0.5 1.5 -0.3
v 0.5 1.7 -0.3
v 0.9 1.8 -0.3
v 0.9 2.1 -0.3
v 1 1.8 -0.3
v 1 2.1 -0.3
v 1.1 1.8 -0.3
v 1.1 2.1 -0.3
v 1.2 1.8 -0.3
v 1.2 2.1 -0.3
v 1.4 1.7 -0.3
v 1.4 2.2 -0.3
v -1.1 0.5 0.3
v -0.5 0.5 0.3
v -1.1 0.5 -0.3
v -0.5 0.5 -0.3
v -0.5 0.7 0.3
v -0.4 0.7 0.3
v -0.5 0.7 -0.3
v -0.4 0.7 -0.3
v -0.4 0.9 0.3
v -0.3 0.9 0.3
v -0.1 0.9 0.1
v 0.3 0.9 0.1
v -0.1 0.9 -0.1
v 0.3 0.9 -0.1
v -0.4 0.9 -0.3
v -0.3 0.9 -0.3
v -0.2 1 0.1
v -0.1 1 0.1
v 0.3 1 0.1
v 0.5 1 0.1
v -0.2 1 -0.1
v -0.1 1 -0.1
v 0.3 1 -0.1
v 0.5 1 -0.1
v -0.3 1.1 0.3
v -0.2 1.1 0.3
v -0.2 1.1 0.1
v 0.1 1.1 0.1
v 0.2 1.1 0.1
v -0.2 1.1 -0.1
v 0.1 1.1 -0.1
v 0.2 1.1 -0.1
v -0.3 1.1 -0.3
v -0.2 1.1 -0.3
v 0 1.2 0.1
v 0.1 1.2 0.1
v 0 1.2 -0.1
v 0.1 1.2 -0.1
v -0.2 1.3 0.1
v 0 1.3 0.1
v -0.2 1.3 -0.1
v 0 1.3 -0.1
v -0.2 1.4 0.3
v 0 1.4 0.3
v 0 1.4 0.2
v 0.5 1.4 0.2
v -0.2 1.4 0.1
v 0 1.4 0.1
v 0.4 1.4 0.1
v 0.5 1.4 0.1
v -0.2 1.4 -0.1
v 0 1.4 -0.1
v 0.4 1.4 -0.1
v 0.5 1.4 -0.1
v 0 1.4 -0.2
v 0.5 1.4 -0.2
v -0.2 1.4 -0.3
v 0 1.4 -0.3
v 0 1.5 0.3
v 0.5 1.5 0.3
v -0.9 1.5 0.2
v -0.7 1.5 0.2
v 0 1.5 0.2
v 0.5 1.5 0.2
v 0.5 1.5 0.1
v 1.4 1.5 0.1
v 0.5 1.5 -0.1
v 1.4 1.5 -0.1
v -0.9 1.5 -0.2
v -0.7 1.5 -0.2
v 0 1.5 -0.2
v 0.5 1.5 -0.2
v 0 1.5 -0.3
v 0.5 1.5 -0.3
v -0.9 1.6 0.3
v -0.7 1.6 0.3
v -0.9 1.6 0.2
v -0.7 1.6 0.2
v 0.5 1.6 0.2
v 1.4 1.6 0.2
v 0.5 1.6 0.1
v 1.4 1.6 0.1
v 0.5 1.6 -0.1
v 1.4 1.6 -0.1
v -0.9 1.6 -0.2
v -0.7 1.6 -0.2
v 0.5 1.6 -0.2
v 1.4 1.6 -0.2
v -0.9 1.6 -0.3
v -0.7 1.6 -0.3
v 0.5 1.7 0.3
v 1.4 1.7 0.3
v 0.5 1.7 0.2
v 1.4 1.7 0.2
v 0.5 1.7 -0.2
v 1.4 1.7 -0.2
v 0.5 1.7 -0.3
v 1.4 1.7 -0.3
v 1.2 2 0.1
v 1.4 2 0.1
v 1.2 2 -0.1
v 1.4 2 -0.1
v -0.7 2.1 0.3
v -0.6 2.1 0.3
v -0.5 2.1 0.3
v -0.4 2.1 0.3
v -0.3 2.1 0.3
v -0.2 2.1 0.3
v -0.1 2.1 0.3
v 0.1 2.1 0.3
v 0.9 2.1 0.3
v 1 2.1 0.3
v 1.1 2.1 0.3
v 1.2 2.1 0.3
v 0.9 2.1 0.2
v 1 2.1 0.2
v 1.1 2.1 0.2
v 1.2 2.1 0.2
v -0.7 2.1 0.1
v -0.6 2.1 0.1
v -0.5 2.1 0.1
v -0.4 2.1 0.1
v -0.3 2.1 0.1
v -0.2 2.1 0.1
v 0.8 2.1 0.1
v 0.9 2.1 0.1
v 0.1 2.1 0
v 0.5 2.1 0
v -0.7 2.1 -0.1
v -0.6 2.1 -0.1
v -0.5 2.1 -0.1
v -0.4 2.1 -0.1
v -0.3 2.1 -0.1
v -0.2 2.1 -0.1
v 0.8 2.1 -0.1
v 0.9 2.1 -0.1
v -0.1 2.1 -0.2
v 0.5 2.1 -0.2
v 0.9 2.1 -0.2
v 1 2.1 -0.2
v 1.1 2.1 -0.2
v 1.2 2.1 -0.2
v -0.7 2.1 -0.3
v -0.6 2.1 -0.3
v -0.5 2.1 -0.3
v -0.4 2.1 -0.3
v -0.3 2.1 -0.3
v -0.2 2.1 -0.3
v 0.9 2.1 -0.3
v 1 2.1 -0.3
v 1.1 2.1 -0.3
v 1.2 2.1 -0.3
v -1.1 0.7 0.3
v -1 0.7 0.3
v -1.1 0.7 -0.3
v -1 0.7 -0.3
v -1 0.9 0.3
v -0.9 0.9 0.3
v -1 0.9 -0.3
v -0.9 0.9 -0.3
v -0.1 1 0.1
v 0.3 1 0.1
v -0.1 1 -0.1
v 0.3 1 -0.1
v -0.9 1.1 0.3
v -0.8 1.1 0.3
v 0.3 1.1 0.1
v 0.4 1.1 0.1
v 0.3 1.1 -0.1
v 0.4 1.1 -0.1
v -0.9 1.1 -0.3
v -0.8 1.1 -0.3
v -0.2 1.2 0.1
v -0.1 1.2 0.1
v 0.1 1.2 0.1
v 0.2 1.2 0.1
v -0.2 1.2 -0.1
v -0.1 1.2 -0.1
v 0.1 1.2 -0.1
v 0.2 1.2 -0.1
v -0.8 1.3 0.3
v -0.7 1.3 0.3
v 0 1.3 0.1
v 0.1 1.3 0.1
v 0 1.3 -0.1
v 0.1 1.3 -0.1
v -0.8 1.3 -0.3
v -0.7 1.3 -0.3
v -0.7 1.8 0.3
v -0.6 1.8 0.3
v -0.5 1.8 0.3
v -0.4 1.8 0.3
v -0.3 1.8 0.3
v -0.2 1.8 0.3
v 0.9 1.8 0.3
v 1 1.8 0.3
v 1.1 1.8 0.3
v 1.2 1.8 0.3
v 0.9 1.8 0.2
v 1 1.8 0.2
v 1.1 1.8 0.2
v 1.2 1.8 0.2
v -0.7 1.8 0.1
v -0.6 1.8 0.1
v -0.5 1.8 0.1
v -0.4 1.8 0.1
v -0.3 1.8 0.1
v -0.2 1.8 0.1
v 1.2 1.8 0.1
v 1.4 1.8 0.1
v -0.7 1.8 -0.1
v -0.6 1.8 -0.1
v -0.5 1.8 -0.1
v -0.4 1.8 -0.1
v -0.3 1.8 -0.1
v -0.2 1.8 -0.1
v 1.2 1.8 -0.1
v 1.4 1.8 -0.1
v 0.9 1.8 -0.2
v 1 1.8 -0.2
v 1.1 1.8 -0.2
v 1.2 1.8 -0.2
v -0.7 1.8 -0.3
v -0.6 1.8 -0.3
v -0.5 1.8 -0.3
v -0.4 1.8 -0.3
v -0.3 1.8 -0.3
v -0.2 1.8 -0.3
v 0.9 1.8 -0.3
v 1 1.8 -0.3
v 1.1 1.8 -0.3
v 1.2 1.8 -0.3
v 0.8 1.9 0.1
v 0.9 1.9 0.1
v 0.8 1.9 -0.1
v 0.9 1.9 -0.1
v -0.1 2 0.3
v 0.5 2 0.3
v -0.1 2 -0.2
v 0.5 2 -0.2
v -0.9 2.2 0.3
v 0.1 2.2 0.3
v 0.5 2.2 0.3
v 1.4 2.2 0.3
v -0.8 2.2 0.2
v -0.7 2.2 0.2
v 1.1 2.2 0.1
v 1.2 2.2 0.1
v 0.1 2.2 0
v 0.5 2.2 0
v 1.1 2.2 -0.1
v 1.2 2.2 -0.1
v -0.8 2.2 -0.2
v -0.7 2.2 -0.2
v -0.9 2.2 -0.3
v 1.4 2.2 -0.3
v -0.8 2.3 0.2
v -0.7 2.3 0.2
v 1.1 2.3 0.1
v 1.2 2.3 0.1
v 1.1 2.3 -0.1
v 1.2 2.3 -0.1
v -0.8 2.3 -0.2
v -0.7 2.3 -0.2

# faces
f 3/1/1 2/1/1 1/1/1
f 4/1/1 2/1/1 3/1/1
f 7/1/1 6/1/1 5/1/1
f 8/1/1 6/1/1 7/1/1
f 11/1/1 10/1/1 9/1/1
f 12/1/1 10/1/1 11/1/1
f 16/1/1 14/1/1 13/1/1
f 17/1/1 14/1/1 16/1/1
f 19/1/1 16/1/1 15/1/1
f 20/2/1 17/2/1 16/2/1
f 20/1/1 16/1/1 19/1/1
f 21/1/1 18/1/1 17/1/1
f 21/2/1 17/2/1 20/2/1
f 22/1/1 18/1/1 21/1/1
f 23/2/1 20/2/1 19/2/1
f 23/2/1 21/2/1 20/2/1
f 23/2/1 22/2/1 21/2/1
f 24/2/1 22/2/1 23/2/1
f 27/1/1 26/1/1 25/1/1
f 28/1/1 26/1/1 27/1/1
f 31/2/1 30/2/1 29/2/1
f 32/2/1 30/2/1 31/2/1
f 35/1/1 34/1/1 33/1/1
f 36/1/1 34/1/1 35/1/1
f 37/1/1 35/1/1 33/1/1
f 38/1/1 35/1/1 37/1/1
f 39/1/1 34/1/1 36/1/1
f 40/1/1 34/1/1 39/1/1
f 45/2/1 42/2/1 41/2/1
f 46/2/1 42/2/1 45/2/1
f 47/2/1 44/2/1 43/2/1
f 48/2/1 44/2/1 47/2/1
f 53/2/1 50/2/1 49/2/1
f 54/2/1 50/2/1 53/2/1
f 55/2/1 52/2/1 51/2/1
f 56/2/1 52/2/1 55/2/1
f 59/1/1 58/1/1 57/1/1
f 60/1/1 58/1/1 59/1/1
f 65/2/1 62/2/1 61/2/1
f 66/2/1 62/2/1 65/2/1
f 67/2/1 64/2/1 63/2/1
f 68/2/1 64/2/1 67/2/1
f 71/1/1 70/1/1 69/1/1
f 72/1/1 70/1/1 71/1/1
f 75/1/1 74/1/1 73/1/1
f 76/1/1 74/1/1 75/1/1
f 79/1/1 78/1/1 77/1/1
f 80/1/1 78/1/1 79/1/1
f 83/1/1 82/1/1 81/1/1
f 84/1/1 82/1/1 83/1/1
f 87/1/1 86/1/1 85/1/1
f 88/1/1 86/1/1 87/1/1
f 91/2/1 90/2/1 89/2/1
f 92/2/1 90/2/1 91/2/1
f 93/2/1 91/2/1 89/2/1
f 94/2/1 91/2/1 93/2/1
f 97/2/1 96/2/1 95/2/1
f 98/2/1 96/2/1 97/2/1
f 103/2/1 100/2/1 99/2/1
f 104/2/1 100/2/1 103/2/1
f 105/2/1 102/2/1 101/2/1
f 106/2/1 102/2/1 105/2/1
f 109/2/1 108/2/1 107/2/1
f 110/2/1 108/2/1 109/2/1
f 115/2/1 112/2/1 111/2/1
f 116/2/1 112/2/1 115/2/1
f 117/2/1 114/2/1 113/2/1
f 118/2/1 114/2/1 117/2/1
f 119/2/2 120/2/2 123/2/2
f 123/2/2 120/2/2 124/2/2
f 121/2/2 122/2/2 125/2/2
f 125/2/2 122/2/2 126/2/2
f 127/2/2 128/2/2 129/2/2
f 129/2/2 128/2/2 130/2/2
f 131/1/2 132/1/2 133/1/2
f 133/1/2 132/1/2 134/1/2
f 135/2/2 136/2/2 139/2/2
f 139/2/2 136/2/2 140/2/2
f 137/2/2 138/2/2 141/2/2
f 141/2/2 138/2/2 142/2/2
f 143/1/2 144/1/2 145/1/2
f 145/1/2 144/1/2 146/1/2
f 147/1/2 148/1/2 149/1/2
f 149/1/2 148/1/2 150/1/2
f 151/2/2 152/2/2 155/2/2
f 155/2/2 152/2/2 156/2/2
f 153/2/2 154/2/2 157/2/2
f 157/2/2 154/2/2 158/2/2
f 159/1/2 160/1/2 163/1/2
f 161/1/2 162/1/2 164/1/2
f 159/1/2 163/1/2 165/1/2
f 163/1/2 164/1/2 165/1/2
f 164/1/2 162/1/2 166/1/2
f 165/1/2 164/1/2 166/1/2
f 159/1/2 165/1/2 167/1/2
f 167/1/2 165/1/2 168/1/2
f 166/1/2 162/1/2 169/1/2
f 169/1/2 162/1/2 170/1/2
f 171/1/2 172/1/2 173/1/2
f 173/1/2 172/1/2 174/1/2
f 175/2/2 176/2/2 177/2/2
f 177/2/2 176/2/2 178/2/2
f 179/1/2 180/1/2 183/1/2
f 183/1/2 180/1/2 184/1/2
f 181/1/2 182/1/2 187/1/2
f 187/1/2 182/1/2 188/1/2
f 185/1/2 186/1/2 189/1/2
f 189/1/2 186/1/2 190/1/2
f 191/1/2 192/1/2 193/1/2
f 193/1/2 192/1/2 194/1/2
f 195/2/2 196/2/2 197/2/2
f 197/2/2 196/2/2 198/2/2
f 199/1/2 200/1/2 201/1/2
f 201/1/2 200/1/2 202/1/2
f 203/1/2 204/1/2 205/1/2
f 205/1/2 204/1/2 206/1/2
f 207/1/2 208/1/2 210/1/2
f 210/1/2 208/1/2 211/1/2
f 209/1/2 210/1/2 214/1/2
f 211/1/2 212/1/2 214/1/2
f 210/1/2 211/1/2 214/1/2
f 214/1/2 212/1/2 215/1/2
f 215/1/2 212/1/2 216/1/2
f 216/1/2 212/1/2 217/1/2
f 213/1/2 214/1/2 219/1/2
f 214/1/2 215/1/2 219/1/2
f 219/1/2 215/1/2 220/1/2
f 217/1/2 218/1/2 221/1/2
f 216/1/2 217/1/2 221/1/2
f 221/1/2 218/1/2 222/1/2
f 213/1/2 219/1/2 223/1/2
f 223/1/2 219/1/2 224/1/2
f 222/1/2 218/1/2 225/1/2
f 225/1/2 218/1/2 226/1/2
f 227/2/2 228/2/2 229/2/2
f 229/2/2 228/2/2 230/2/2
f 231/2/2 232/2/2 235/2/2
f 235/2/2 232/2/2 236/2/2
f 233/2/2 234/2/2 237/2/2
f 237/2/2 234/2/2 238/2/2
f 239/2/2 240/2/2 243/2/2
f 243/2/2 240/2/2 244/2/2
f 241/2/2 242/2/2 245/2/2
f 245/2/2 242/2/2 246/2/2
f 247/2/2 248/2/2 249/2/2
f 249/2/2 248/2/2 250/2/2
f 251/2/2 252/2/2 253/2/2
f 253/2/2 252/2/2 254/2/2
f 255/2/2 256/2/2 258/2/2
f 258/2/2 256/2/2 259/2/2
f 257/2/2 258/2/2 262/2/2
f 259/2/2 260/2/2 262/2/2
f 258/2/2 259/2/2 262/2/2
f 262/2/2 260/2/2 263/2/2
f 261/2/2 262/2/2 265/2/2
f 263/2/2 264/2/2 265/2/2
f 262/2/2 263/2/2 265/2/2
f 265/2/2 264/2/2 266/2/2
f 261/2/2 265/2/2 267/2/2
f 266/2/2 264/2/2 268/2/2
f 261/2/2 267/2/2 269/2/2
f 267/2/2 268/2/2 269/2/2
f 268/2/2 264/2/2 270/2/2
f 269/2/2 268/2/2 270/2/2
f 273/1/3 272/1/3 271/1/3
f 275/1/3 274/1/3 273/1/3
f 280/1/3 276/1/3 275/1/3
f 282/1/3 281/1/3 280/1/3
f 283/1/3 278/1/3 277/1/3
f 284/2/3 279/2/3 278/2/3
f 285/2/3 279/2/3 284/2/3
f 286/2/3 284/2/3 278/2/3
f 287/2/3 279/2/3 285/2/3
f 288/1/3 273/1/3 271/1/3
f 288/1/3 275/1/3 273/1/3
f 288/1/3 283/1/3 282/1/3
f 288/1/3 282/1/3 280/1/3
f 288/1/3 280/1/3 275/1/3
f 289/1/3 283/1/3 288/1/3
f 290/2/3 287/2/3 286/2/3
f 290/2/3 286/2/3 278/2/3
f 291/2/3 279/2/3 287/2/3
f 291/2/3 287/2/3 290/2/3
f 292/1/3 283/1/3 289/1/3
f 293/1/3 283/1/3 292/1/3
f 294/2/3 290/2/3 278/2/3
f 295/2/3 279/2/3 291/2/3
f 296/1/3 283/1/3 293/1/3
f 297/1/3 283/1/3 296/1/3
f 298/2/3 294/2/3 278/2/3
f 298/2/3 295/2/3 294/2/3
f 299/2/3 279/2/3 295/2/3
f 299/2/3 295/2/3 298/2/3
f 300/1/3 283/1/3 297/1/3
f 301/1/3 283/1/3 300/1/3
f 302/2/3 298/2/3 278/2/3
f 303/2/3 279/2/3 299/2/3
f 304/2/3 303/2/3 302/2/3
f 305/2/3 279/2/3 303/2/3
f 305/2/3 303/2/3 304/2/3
f 306/1/3 283/1/3 301/1/3
f 307/1/3 283/1/3 306/1/3
f 308/2/3 279/2/3 305/2/3
f 309/2/3 279/2/3 308/2/3
f 310/1/3 283/1/3 307/1/3
f 311/2/3 302/2/3 278/2/3
f 311/1/3 283/1/3 310/1/3
f 311/1/3 278/1/3 283/1/3
f 311/2/3 304/2/3 302/2/3
f 312/2/3 304/2/3 311/2/3
f 314/2/3 313/2/3 312/2/3
f 314/2/3 312/2/3 311/2/3
f 315/2/3 313/2/3 314/2/3
f 316/2/3 314/2/3 311/2/3
f 317/2/3 313/2/3 315/2/3
f 318/2/3 316/2/3 311/2/3
f 318/2/3 317/2/3 316/2/3
f 319/2/3 313/2/3 317/2/3
f 319/2/3 317/2/3 318/2/3
f 320/2/3 318/2/3 311/2/3
f 321/2/3 313/2/3 319/2/3
f 322/2/3 320/2/3 311/2/3
f 322/2/3 321/2/3 320/2/3
f 323/2/3 313/2/3 321/2/3
f 323/2/3 321/2/3 322/2/3
f 328/1/3 325/1/3 324/1/3
f 329/1/3 325/1/3 328/1/3
f 330/2/3 327/2/3 326/2/3
f 331/2/3 327/2/3 330/2/3
f 334/1/3 333/1/3 332/1/3
f 335/1/3 333/1/3 334/1/3
f 340/2/3 339/2/3 338/2/3
f 341/2/3 339/2/3 340/2/3
f 344/2/3 343/2/3 342/2/3
f 345/2/3 343/2/3 344/2/3
f 346/2/3 337/2/3 336/2/3
f 347/2/3 337/2/3 346/2/3
f 350/2/3 349/2/3 348/2/3
f 351/2/3 349/2/3 350/2/3
f 354/2/3 353/2/3 352/2/3
f 355/2/3 353/2/3 354/2/3
f 363/2/3 357/2/3 356/2/3
f 364/2/3 357/2/3 363/2/3
f 366/1/3 359/1/3 358/1/3
f 366/1/3 360/1/3 359/1/3
f 367/1/3 360/1/3 366/1/3
f 369/1/3 362/1/3 361/1/3
f 370/1/3 362/1/3 369/1/3
f 372/1/3 369/1/3 368/1/3
f 373/1/3 369/1/3 372/1/3
f 374/1/3 372/1/3 371/1/3
f 375/1/3 372/1/3 374/1/3
f 376/1/3 366/1/3 365/1/3
f 377/1/3 366/1/3 376/1/3
f 379/1/3 378/1/3 377/1/3
f 381/1/3 379/1/3 377/1/3
f 381/1/3 380/1/3 379/1/3
f 382/1/3 380/1/3 381/1/3
f 387/2/3 386/2/3 385/2/3
f 388/2/3 386/2/3 387/2/3
f 389/2/3 384/2/3 383/2/3
f 390/2/3 384/2/3 389/2/3
f 393/2/3 392/2/3 391/2/3
f 394/2/3 392/2/3 393/2/3
f 397/2/3 396/2/3 395/2/3
f 398/2/3 396/2/3 397/2/3
f 401/2/3 400/2/3 399/2/3
f 402/2/3 400/2/3 401/2/3
f 405/2/3 404/2/3 403/2/3
f 406/2/3 404/2/3 405/2/3
f 407/2/4 408/2/4 409/2/4
f 409/2/4 408/2/4 410/2/4
f 411/2/4 412/2/4 413/2/4
f 413/2/4 412/2/4 414/2/4
f 415/2/4 416/2/4 417/2/4
f 417/2/4 416/2/4 418/2/4
f 419/2/4 420/2/4 421/2/4
f 421/2/4 420/2/4 422/2/4
f 423/2/4 424/2/4 430/2/4
f 430/2/4 424/2/4 431/2/4
f 425/1/4 426/1/4 433/1/4
f 426/1/4 427/1/4 433/1/4
f 433/1/4 427/1/4 434/1/4
f 428/1/4 429/1/4 436/1/4
f 436/1/4 429/1/4 437/1/4
f 435/1/4 436/1/4 439/1/4
f 439/1/4 436/1/4 440/1/4
f 438/1/4 439/1/4 441/1/4
f 441/1/4 439/1/4 442/1/4
f 432/1/4 433/1/4 443/1/4
f 443/1/4 433/1/4 444/1/4
f 444/1/4 445/1/4 446/1/4
f 444/1/4 446/1/4 448/1/4
f 446/1/4 447/1/4 448/1/4
f 448/1/4 447/1/4 449/1/4
f 452/2/4 453/2/4 454/2/4
f 454/2/4 453/2/4 455/2/4
f 450/2/4 451/2/4 456/2/4
f 456/2/4 451/2/4 457/2/4
f 458/1/4 459/1/4 462/1/4
f 462/1/4 459/1/4 463/1/4
f 460/2/4 461/2/4 464/2/4
f 464/2/4 461/2/4 465/2/4
f 466/1/4 467/1/4 468/1/4
f 468/1/4 467/1/4 469/1/4
f 472/2/4 473/2/4 474/2/4
f 474/2/4 473/2/4 475/2/4
f 476/2/4 477/2/4 478/2/4
f 478/2/4 477/2/4 479/2/4
f 470/2/4 471/2/4 480/2/4
f 480/2/4 471/2/4 481/2/4
f 482/1/4 483/1/4 484/1/4
f 484/1/4 485/1/4 486/1/4
f 486/1/4 487/1/4 491/1/4
f 491/1/4 492/1/4 493/1/4
f 488/1/4 489/1/4 494/1/4
f 489/2/4 490/2/4 495/2/4
f 495/2/4 490/2/4 496/2/4
f 489/2/4 495/2/4 497/2/4
f 496/2/4 490/2/4 498/2/4
f 482/1/4 484/1/4 499/1/4
f 484/1/4 486/1/4 499/1/4
f 493/1/4 494/1/4 499/1/4
f 491/1/4 493/1/4 499/1/4
f 486/1/4 491/1/4 499/1/4
f 499/1/4 494/1/4 500/1/4
f 497/2/4 498/2/4 501/2/4
f 489/2/4 497/2/4 501/2/4
f 498/2/4 490/2/4 502/2/4
f 501/2/4 498/2/4 502/2/4
f 500/1/4 494/1/4 503/1/4
f 503/1/4 494/1/4 504/1/4
f 489/2/4 501/2/4 505/2/4
f 502/2/4 490/2/4 506/2/4
f 504/1/4 494/1/4 507/1/4
f 507/1/4 494/1/4 508/1/4
f 489/2/4 505/2/4 509/2/4
f 505/2/4 506/2/4 509/2/4
f 506/2/4 490/2/4 510/2/4
f 509/2/4 506/2/4 510/2/4
f 508/1/4 494/1/4 511/1/4
f 511/1/4 494/1/4 512/1/4
f 489/2/4 509/2/4 513/2/4
f 510/2/4 490/2/4 514/2/4
f 512/1/4 494/1/4 515/1/4
f 515/1/4 494/1/4 516/1/4
f 516/1/4 494/1/4 517/1/4
f 489/2/4 513/2/4 518/2/4
f 517/1/4 494/1/4 518/1/4
f 494/1/4 489/1/4 518/1/4
f 513/2/4 514/2/4 518/2/4
f 518/2/4 514/2/4 519/2/4
f 514/2/4 490/2/4 520/2/4
f 519/2/4 514/2/4 520/2/4
f 518/2/4 519/2/4 521/2/4
f 520/2/4 490/2/4 522/2/4
f 518/2/4 521/2/4 523/2/4
f 521/2/4 522/2/4 523/2/4
f 522/2/4 490/2/4 524/2/4
f 523/2/4 522/2/4 524/2/4
f 518/2/4 523/2/4 525/2/4
f 524/2/4 490/2/4 526/2/4
f 518/2/4 525/2/4 527/2/4
f 525/2/4 526/2/4 527/2/4
f 526/2/4 490/2/4 528/2/4
f 527/2/4 526/2/4 528/2/4
f 531/1/5 530/1/5 529/1/5
f 532/1/5 530/1/5 531/1/5
f 535/1/5 534/1/5 533/1/5
f 536/1/5 534/1/5 535/1/5
f 541/1/5 540/1/5 539/1/5
f 542/1/5 540/1/5 541/1/5
f 543/1/5 538/1/5 537/1/5
f 544/1/5 538/1/5 543/1/5
f 549/1/5 546/1/5 545/1/5
f 550/1/5 546/1/5 549/1/5
f 551/1/5 548/1/5 547/1/5
f 552/1/5 548/1/5 551/1/5
f 555/1/5 554/1/5 553/1/5
f 558/1/5 555/1/5 553/1/5
f 559/1/5 557/1/5 556/1/5
f 560/1/5 557/1/5 559/1/5
f 561/1/5 558/1/5 553/1/5
f 562/1/5 558/1/5 561/1/5
f 565/1/5 564/1/5 563/1/5
f 566/1/5 564/1/5 565/1/5
f 569/1/5 568/1/5 567/1/5
f 570/1/5 568/1/5 569/1/5
f 573/1/5 572/1/5 571/1/5
f 575/1/5 573/1/5 571/1/5
f 575/1/5 574/1/5 573/1/5
f 576/1/5 574/1/5 575/1/5
f 577/1/5 574/1/5 576/1/5
f 578/1/5 574/1/5 577/1/5
f 580/1/5 577/1/5 576/1/5
f 581/1/5 577/1/5 580/1/5
f 583/1/5 580/1/5 579/1/5
f 583/1/5 582/1/5 581/1/5
f 583/1/5 581/1/5 580/1/5
f 584/1/5 582/1/5 583/1/5
f 585/1/5 583/1/5 579/1/5
f 586/1/5 583/1/5 585/1/5
f 591/1/5 588/1/5 587/1/5
f 592/1/5 588/1/5 591/1/5
f 595/2/5 594/2/5 593/2/5
f 596/2/5 594/2/5 595/2/5
f 597/1/5 590/1/5 589/1/5
f 598/1/5 590/1/5 597/1/5
f 601/1/5 600/1/5 599/1/5
f 602/1/5 600/1/5 601/1/5
f 605/1/5 604/1/5 603/1/5
f 606/1/5 604/1/5 605/1/5
f 609/2/5 608/2/5 607/2/5
f 610/2/5 608/2/5 609/2/5
f 615/2/5 612/2/5 611/2/5
f 616/2/5 612/2/5 615/2/5
f 617/1/5 614/1/5 613/1/5
f 618/1/5 614/1/5 617/1/5
f 621/2/5 620/2/5 619/2/5
f 622/2/5 620/2/5 621/2/5
f 625/2/5 624/2/5 623/2/5
f 626/2/5 624/2/5 625/2/5
f 629/2/5 628/2/5 627/2/5
f 630/2/5 628/2/5 629/2/5
f 643/2/5 640/2/5 639/2/5
f 644/2/5 640/2/5 643/2/5
f 645/2/5 642/2/5 641/2/5
f 646/2/5 642/2/5 645/2/5
f 647/2/5 632/2/5 631/2/5
f 648/2/5 632/2/5 647/2/5
f 649/2/5 634/2/5 633/2/5
f 650/2/5 634/2/5 649/2/5
f 651/2/5 636/2/5 635/2/5
f 652/2/5 636/2/5 651/2/5
f 655/2/5 638/2/5 637/2/5
f 663/2/5 654/2/5 653/2/5
f 664/2/5 654/2/5 663/2/5
f 665/2/5 655/2/5 637/2/5
f 665/2/5 656/2/5 655/2/5
f 666/2/5 656/2/5 665/2/5
f 671/2/5 658/2/5 657/2/5
f 672/2/5 658/2/5 671/2/5
f 673/2/5 660/2/5 659/2/5
f 674/2/5 660/2/5 673/2/5
f 675/2/5 662/2/5 661/2/5
f 676/2/5 662/2/5 675/2/5
f 677/2/5 668/2/5 667/2/5
f 678/2/5 668/2/5 677/2/5
f 679/2/5 670/2/5 669/2/5
f 680/2/5 670/2/5 679/2/5
f 681/1/6 682/1/6 683/1/6
f 683/1/6 682/1/6 684/1/6
f 685/1/6 686/1/6 687/1/6
f 687/1/6 686/1/6 688/1/6
f 689/1/6 690/1/6 691/1/6
f 691/1/6 690/1/6 692/1/6
f 695/1/6 696/1/6 697/1/6
f 697/1/6 696/1/6 698/1/6
f 693/1/6 694/1/6 699/1/6
f 699/1/6 694/1/6 700/1/6
f 701/1/6 702/1/6 705/1/6
f 705/1/6 702/1/6 706/1/6
f 703/1/6 704/1/6 707/1/6
f 707/1/6 704/1/6 708/1/6
f 711/1/6 712/1/6 713/1/6
f 713/1/6 712/1/6 714/1/6
f 709/1/6 710/1/6 715/1/6
f 715/1/6 710/1/6 716/1/6
f 723/2/6 724/2/6 727/2/6
f 727/2/6 724/2/6 728/2/6
f 725/2/6 726/2/6 729/2/6
f 729/2/6 726/2/6 730/2/6
f 717/2/6 718/2/6 731/2/6
f 731/2/6 718/2/6 732/2/6
f 719/2/6 720/2/6 733/2/6
f 733/2/6 720/2/6 734/2/6
f 721/2/6 722/2/6 735/2/6
f 735/2/6 722/2/6 736/2/6
f 737/2/6 738/2/6 745/2/6
f 745/2/6 738/2/6 746/2/6
f 739/2/6 740/2/6 751/2/6
f 751/2/6 740/2/6 752/2/6
f 741/2/6 742/2/6 753/2/6
f 753/2/6 742/2/6 754/2/6
f 743/2/6 744/2/6 755/2/6
f 755/2/6 744/2/6 756/2/6
f 747/2/6 748/2/6 757/2/6
f 757/2/6 748/2/6 758/2/6
f 749/2/6 750/2/6 759/2/6
f 759/2/6 750/2/6 760/2/6
f 761/2/6 762/2/6 763/2/6
f 763/2/6 762/2/6 764/2/6
f 765/2/6 766/2/6 767/2/6
f 767/2/6 766/2/6 768/2/6
f 769/2/6 770/2/6 773/2/6
f 773/2/6 770/2/6 774/2/6
f 771/2/6 772/2/6 775/2/6
f 775/2/6 772/2/6 776/2/6
f 774/2/6 770/2/6 777/2/6
f 771/2/6 775/2/6 778/2/6
f 778/2/6 775/2/6 779/2/6
f 777/2/6 778/2/6 779/2/6
f 776/2/6 772/2/6 780/2/6
f 769/2/6 773/2/6 781/2/6
f 777/2/6 779/2/6 782/2/6
f 779/2/6 780/2/6 782/2/6
f 774/2/6 777/2/6 782/2/6
f 769/2/6 781/2/6 783/2/6
f 781/2/6 782/2/6 783/2/6
f 782/2/6 780/2/6 784/2/6
f 783/2/6 782/2/6 784/2/6
f 780/2/6 772/2/6 784/2/6
f 787/2/6 788/2/6 789/2/6
f 789/2/6 788/2/6 790/2/6
f 785/2/6 786/2/6 791/2/6
f 791/2/6 786/2/6 792/2/6
