# MagicaVoxel @ Ephtracy

# group
o 

# material
mtllib nTheMan.mtl
usemtl palette

# normals
vn -1 0 0
vn 1 0 0
vn 0 0 1
vn 0 0 -1
vn 0 -1 0
vn 0 1 0

# texcoords
vt 0.119141 0.5
vt 0.966797 0.5
vt 0.994141 0.5

# verts
v -0.9 1.7 0.3
v -0.9 1.7 0
v -0.9 4.7 0.3
v -0.9 4.7 0
v -0.7 3.1 0.4
v -0.7 3.1 0.3
v -0.7 3.1 0
v -0.7 3.1 -0.1
v -0.7 4.7 0.4
v -0.7 4.7 0.3
v -0.7 4.7 0
v -0.7 4.7 -0.1
v -0.7 4.8 0.4
v -0.7 4.8 -0.1
v -0.7 5.1 0.4
v -0.7 5.1 0.3
v -0.7 5.2 0.4
v -0.7 5.2 0.3
v -0.7 5.6 0.4
v -0.7 5.6 -0.1
v -0.6 0 0.3
v -0.6 0 0
v -0.6 3.1 0.3
v -0.6 3.1 0
v -0.6 4.7 0.3
v -0.6 4.7 0
v -0.6 4.8 0.3
v -0.6 4.8 0
v -0.2 0 0.3
v -0.2 0 0
v -0.2 3.1 0.3
v -0.2 3.1 0
v 0.2 1.7 0.3
v 0.2 1.7 0
v 0.2 3.1 0.3
v 0.2 3.1 0
v -0.7 1.7 0.3
v -0.7 1.7 0
v -0.7 3.1 0.3
v -0.7 3.1 0
v -0.3 0 0.3
v -0.3 0 0
v -0.3 3.1 0.3
v -0.3 3.1 0
v 0.1 0 0.3
v 0.1 0 0
v 0.1 3.1 0.3
v 0.1 3.1 0
v 0.1 4.7 0.3
v 0.1 4.7 0
v 0.1 4.8 0.3
v 0.1 4.8 0
v 0.2 3.1 0.4
v 0.2 3.1 0.3
v 0.2 3.1 0
v 0.2 3.1 -0.1
v 0.2 4.7 0.4
v 0.2 4.7 0.3
v 0.2 4.7 0
v 0.2 4.7 -0.1
v 0.2 4.8 0.4
v 0.2 4.8 -0.1
v 0.2 5.1 0.4
v 0.2 5.1 0.3
v 0.2 5.2 0.4
v 0.2 5.2 0.3
v 0.2 5.6 0.4
v 0.2 5.6 -0.1
v 0.4 1.7 0.3
v 0.4 1.7 0
v 0.4 4.7 0.3
v 0.4 4.7 0
v -0.7 3.1 0.4
v -0.7 4.7 0.4
v -0.7 4.8 0.4
v -0.7 5.1 0.4
v -0.7 5.2 0.4
v -0.7 5.6 0.4
v -0.6 5.1 0.4
v -0.6 5.2 0.4
v -0.5 5.1 0.4
v -0.5 5.2 0.4
v -0.4 5.1 0.4
v -0.4 5.2 0.4
v -0.1 5.1 0.4
v -0.1 5.2 0.4
v 0 5.1 0.4
v 0 5.2 0.4
v 0.1 5.1 0.4
v 0.1 5.2 0.4
v 0.2 3.1 0.4
v 0.2 4.7 0.4
v 0.2 4.8 0.4
v 0.2 5.1 0.4
v 0.2 5.2 0.4
v 0.2 5.6 0.4
v -0.9 1.7 0.3
v -0.9 4.7 0.3
v -0.7 1.7 0.3
v -0.7 3.1 0.3
v -0.7 4.7 0.3
v -0.6 0 0.3
v -0.6 3.1 0.3
v -0.6 4.7 0.3
v -0.6 4.8 0.3
v -0.3 0 0.3
v -0.3 3.1 0.3
v -0.2 0 0.3
v -0.2 3.1 0.3
v 0.1 0 0.3
v 0.1 3.1 0.3
v 0.1 4.7 0.3
v 0.1 4.8 0.3
v 0.2 1.7 0.3
v 0.2 3.1 0.3
v 0.2 4.7 0.3
v 0.4 1.7 0.3
v 0.4 4.7 0.3
v -0.9 1.7 0
v -0.9 4.7 0
v -0.7 1.7 0
v -0.7 3.1 0
v -0.7 4.7 0
v -0.6 0 0
v -0.6 3.1 0
v -0.6 4.7 0
v -0.6 4.8 0
v -0.3 0 0
v -0.3 3.1 0
v -0.2 0 0
v -0.2 3.1 0
v 0.1 0 0
v 0.1 3.1 0
v 0.1 4.7 0
v 0.1 4.8 0
v 0.2 1.7 0
v 0.2 3.1 0
v 0.2 4.7 0
v 0.4 1.7 0
v 0.4 4.7 0
v -0.7 3.1 -0.1
v -0.7 4.7 -0.1
v -0.7 4.8 -0.1
v -0.7 5.6 -0.1
v 0.2 3.1 -0.1
v 0.2 4.7 -0.1
v 0.2 4.8 -0.1
v 0.2 5.6 -0.1
v -0.6 0 0.3
v -0.3 0 0.3
v -0.2 0 0.3
v 0.1 0 0.3
v -0.6 0 0
v -0.3 0 0
v -0.2 0 0
v 0.1 0 0
v -0.9 1.7 0.3
v -0.7 1.7 0.3
v 0.2 1.7 0.3
v 0.4 1.7 0.3
v -0.9 1.7 0
v -0.7 1.7 0
v 0.2 1.7 0
v 0.4 1.7 0
v -0.7 3.1 0.4
v 0.2 3.1 0.4
v -0.7 3.1 0.3
v -0.6 3.1 0.3
v -0.3 3.1 0.3
v -0.2 3.1 0.3
v 0.1 3.1 0.3
v 0.2 3.1 0.3
v -0.7 3.1 0
v -0.6 3.1 0
v -0.3 3.1 0
v -0.2 3.1 0
v 0.1 3.1 0
v 0.2 3.1 0
v -0.7 3.1 -0.1
v 0.2 3.1 -0.1
v -0.7 4.8 0.4
v 0.2 4.8 0.4
v -0.6 4.8 0.3
v 0.1 4.8 0.3
v -0.6 4.8 0
v 0.1 4.8 0
v -0.7 4.8 -0.1
v 0.2 4.8 -0.1
v -0.7 4.7 0.4
v 0.2 4.7 0.4
v -0.9 4.7 0.3
v -0.7 4.7 0.3
v -0.6 4.7 0.3
v 0.1 4.7 0.3
v 0.2 4.7 0.3
v 0.4 4.7 0.3
v -0.9 4.7 0
v -0.7 4.7 0
v -0.6 4.7 0
v 0.1 4.7 0
v 0.2 4.7 0
v 0.4 4.7 0
v -0.7 4.7 -0.1
v 0.2 4.7 -0.1
v -0.7 5.6 0.4
v 0.2 5.6 0.4
v -0.7 5.6 -0.1
v 0.2 5.6 -0.1

# faces
f 3/3/1 2/3/1 1/3/1
f 4/3/1 2/3/1 3/3/1
f 9/3/1 6/3/1 5/3/1
f 10/3/1 6/3/1 9/3/1
f 11/3/1 8/3/1 7/3/1
f 12/3/1 8/3/1 11/3/1
f 15/3/1 14/3/1 13/3/1
f 16/3/1 14/3/1 15/3/1
f 17/2/1 16/2/1 15/2/1
f 18/3/1 14/3/1 16/3/1
f 18/2/1 16/2/1 17/2/1
f 19/3/1 18/3/1 17/3/1
f 20/3/1 14/3/1 18/3/1
f 20/3/1 18/3/1 19/3/1
f 23/3/1 22/3/1 21/3/1
f 24/3/1 22/3/1 23/3/1
f 27/3/1 26/3/1 25/3/1
f 28/3/1 26/3/1 27/3/1
f 31/3/1 30/3/1 29/3/1
f 32/3/1 30/3/1 31/3/1
f 35/3/1 34/3/1 33/3/1
f 36/3/1 34/3/1 35/3/1
f 37/3/2 38/3/2 39/3/2
f 39/3/2 38/3/2 40/3/2
f 41/3/2 42/3/2 43/3/2
f 43/3/2 42/3/2 44/3/2
f 45/3/2 46/3/2 47/3/2
f 47/3/2 46/3/2 48/3/2
f 49/3/2 50/3/2 51/3/2
f 51/3/2 50/3/2 52/3/2
f 53/3/2 54/3/2 57/3/2
f 57/3/2 54/3/2 58/3/2
f 55/3/2 56/3/2 59/3/2
f 59/3/2 56/3/2 60/3/2
f 61/3/2 62/3/2 63/3/2
f 63/3/2 62/3/2 64/3/2
f 63/2/2 64/2/2 65/2/2
f 64/3/2 62/3/2 66/3/2
f 65/2/2 64/2/2 66/2/2
f 65/3/2 66/3/2 67/3/2
f 66/3/2 62/3/2 68/3/2
f 67/3/2 66/3/2 68/3/2
f 69/3/2 70/3/2 71/3/2
f 71/3/2 70/3/2 72/3/2
f 79/3/3 76/3/3 75/3/3
f 79/2/3 77/2/3 76/2/3
f 80/3/3 78/3/3 77/3/3
f 80/2/3 77/2/3 79/2/3
f 81/3/3 79/3/3 75/3/3
f 81/1/3 80/1/3 79/1/3
f 82/3/3 78/3/3 80/3/3
f 82/1/3 80/1/3 81/1/3
f 83/3/3 81/3/3 75/3/3
f 83/2/3 82/2/3 81/2/3
f 84/3/3 78/3/3 82/3/3
f 84/2/3 82/2/3 83/2/3
f 85/3/3 83/3/3 75/3/3
f 85/3/3 84/3/3 83/3/3
f 86/3/3 78/3/3 84/3/3
f 86/3/3 84/3/3 85/3/3
f 87/3/3 85/3/3 75/3/3
f 87/2/3 86/2/3 85/2/3
f 88/3/3 78/3/3 86/3/3
f 88/2/3 86/2/3 87/2/3
f 89/3/3 87/3/3 75/3/3
f 89/1/3 88/1/3 87/1/3
f 90/3/3 78/3/3 88/3/3
f 90/1/3 88/1/3 89/1/3
f 91/3/3 74/3/3 73/3/3
f 92/3/3 74/3/3 91/3/3
f 93/3/3 89/3/3 75/3/3
f 94/2/3 90/2/3 89/2/3
f 94/3/3 89/3/3 93/3/3
f 95/3/3 78/3/3 90/3/3
f 95/2/3 90/2/3 94/2/3
f 96/3/3 78/3/3 95/3/3
f 99/3/3 98/3/3 97/3/3
f 100/3/3 98/3/3 99/3/3
f 101/3/3 98/3/3 100/3/3
f 106/3/3 103/3/3 102/3/3
f 107/3/3 103/3/3 106/3/3
f 110/3/3 109/3/3 108/3/3
f 111/3/3 109/3/3 110/3/3
f 112/3/3 105/3/3 104/3/3
f 113/3/3 105/3/3 112/3/3
f 117/3/3 115/3/3 114/3/3
f 117/3/3 116/3/3 115/3/3
f 118/3/3 116/3/3 117/3/3
f 119/3/4 120/3/4 121/3/4
f 121/3/4 120/3/4 122/3/4
f 122/3/4 120/3/4 123/3/4
f 124/3/4 125/3/4 128/3/4
f 128/3/4 125/3/4 129/3/4
f 130/3/4 131/3/4 132/3/4
f 132/3/4 131/3/4 133/3/4
f 126/3/4 127/3/4 134/3/4
f 134/3/4 127/3/4 135/3/4
f 136/3/4 137/3/4 139/3/4
f 137/3/4 138/3/4 139/3/4
f 139/3/4 138/3/4 140/3/4
f 141/3/4 142/3/4 145/3/4
f 145/3/4 142/3/4 146/3/4
f 143/3/4 144/3/4 147/3/4
f 147/3/4 144/3/4 148/3/4
f 153/3/5 150/3/5 149/3/5
f 154/3/5 150/3/5 153/3/5
f 155/3/5 152/3/5 151/3/5
f 156/3/5 152/3/5 155/3/5
f 161/3/5 158/3/5 157/3/5
f 162/3/5 158/3/5 161/3/5
f 163/3/5 160/3/5 159/3/5
f 164/3/5 160/3/5 163/3/5
f 167/3/5 166/3/5 165/3/5
f 168/3/5 166/3/5 167/3/5
f 169/3/5 166/3/5 168/3/5
f 170/3/5 166/3/5 169/3/5
f 171/3/5 166/3/5 170/3/5
f 172/3/5 166/3/5 171/3/5
f 173/3/5 168/3/5 167/3/5
f 174/3/5 168/3/5 173/3/5
f 175/3/5 170/3/5 169/3/5
f 176/3/5 170/3/5 175/3/5
f 177/3/5 172/3/5 171/3/5
f 178/3/5 172/3/5 177/3/5
f 179/3/5 176/3/5 175/3/5
f 179/3/5 174/3/5 173/3/5
f 179/3/5 178/3/5 177/3/5
f 179/3/5 177/3/5 176/3/5
f 179/3/5 175/3/5 174/3/5
f 180/3/5 178/3/5 179/3/5
f 183/3/5 182/3/5 181/3/5
f 184/3/5 182/3/5 183/3/5
f 185/3/5 183/3/5 181/3/5
f 186/3/5 182/3/5 184/3/5
f 187/3/5 185/3/5 181/3/5
f 187/3/5 186/3/5 185/3/5
f 188/3/5 182/3/5 186/3/5
f 188/3/5 186/3/5 187/3/5
f 189/3/6 190/3/6 192/3/6
f 192/3/6 190/3/6 193/3/6
f 193/3/6 190/3/6 194/3/6
f 194/3/6 190/3/6 195/3/6
f 191/3/6 192/3/6 197/3/6
f 192/3/6 193/3/6 197/3/6
f 197/3/6 193/3/6 198/3/6
f 198/3/6 193/3/6 199/3/6
f 195/3/6 196/3/6 200/3/6
f 194/3/6 195/3/6 200/3/6
f 200/3/6 196/3/6 201/3/6
f 201/3/6 196/3/6 202/3/6
f 198/3/6 199/3/6 203/3/6
f 200/3/6 201/3/6 203/3/6
f 199/3/6 200/3/6 203/3/6
f 203/3/6 201/3/6 204/3/6
f 205/3/6 206/3/6 207/3/6
f 207/3/6 206/3/6 208/3/6
